<mxfile host="app.diagrams.net" modified="2022-09-29T06:04:21.543Z" agent="5.0 (Windows NT 10.0; Win64; x64) AppleWebKit/537.36 (KHTML, like Gecko) Chrome/105.0.0.0 Safari/537.36" etag="HZxMxYBfV-ia4NlfsoPM" version="20.3.7" type="github">
  <diagram id="NO0MrUpebZ2SBpMLK5WK" name="Page-1">
    <mxGraphModel dx="727" dy="1281" grid="1" gridSize="10" guides="1" tooltips="1" connect="1" arrows="1" fold="1" page="1" pageScale="1" pageWidth="1169" pageHeight="827" math="0" shadow="0">
      <root>
        <mxCell id="0" />
        <mxCell id="1" parent="0" />
        <mxCell id="-zpiWiMWNnFgHcxVn4J2-24" style="edgeStyle=orthogonalEdgeStyle;rounded=0;orthogonalLoop=1;jettySize=auto;html=1;exitX=0.5;exitY=0;exitDx=0;exitDy=0;fontFamily=Times New Roman;fontSize=11;endArrow=classicThin;endFill=1;entryX=0.5;entryY=0;entryDx=0;entryDy=0;startArrow=none;startFill=0;" parent="1" source="-zpiWiMWNnFgHcxVn4J2-1" target="-zpiWiMWNnFgHcxVn4J2-18" edge="1">
          <mxGeometry relative="1" as="geometry">
            <mxPoint x="1051" y="-415" as="targetPoint" />
            <Array as="points">
              <mxPoint x="176" y="-390" />
              <mxPoint x="1031" y="-390" />
            </Array>
          </mxGeometry>
        </mxCell>
        <mxCell id="3e-uo4Sejg_3FfOKzJGx-12" style="edgeStyle=orthogonalEdgeStyle;rounded=0;orthogonalLoop=1;jettySize=auto;html=1;exitX=0.5;exitY=1;exitDx=0;exitDy=0;entryX=0.5;entryY=1;entryDx=0;entryDy=0;" parent="1" source="-zpiWiMWNnFgHcxVn4J2-1" target="-zpiWiMWNnFgHcxVn4J2-3" edge="1">
          <mxGeometry relative="1" as="geometry">
            <Array as="points">
              <mxPoint x="176" y="-320" />
              <mxPoint x="236" y="-320" />
            </Array>
          </mxGeometry>
        </mxCell>
        <mxCell id="-zpiWiMWNnFgHcxVn4J2-1" value="&lt;font style=&quot;font-size: 11px;&quot; face=&quot;Times New Roman&quot;&gt;&lt;u&gt;Order#&lt;/u&gt;&lt;/font&gt;" style="rounded=0;whiteSpace=wrap;html=1;" parent="1" vertex="1">
          <mxGeometry x="151" y="-365" width="50" height="20" as="geometry" />
        </mxCell>
        <mxCell id="-zpiWiMWNnFgHcxVn4J2-62" style="edgeStyle=orthogonalEdgeStyle;rounded=0;orthogonalLoop=1;jettySize=auto;html=1;exitX=0.5;exitY=0;exitDx=0;exitDy=0;fontFamily=Times New Roman;fontSize=11;endArrow=none;endFill=0;startArrow=classicThin;startFill=1;" parent="1" source="-zpiWiMWNnFgHcxVn4J2-3" edge="1">
          <mxGeometry relative="1" as="geometry">
            <mxPoint x="236.28571428571428" y="-390" as="targetPoint" />
          </mxGeometry>
        </mxCell>
        <mxCell id="-zpiWiMWNnFgHcxVn4J2-3" value="&lt;font style=&quot;font-size: 11px;&quot; face=&quot;Times New Roman&quot;&gt;Order_Date&lt;/font&gt;" style="rounded=0;whiteSpace=wrap;html=1;" parent="1" vertex="1">
          <mxGeometry x="201" y="-365" width="70" height="20" as="geometry" />
        </mxCell>
        <mxCell id="-zpiWiMWNnFgHcxVn4J2-63" style="edgeStyle=orthogonalEdgeStyle;rounded=0;orthogonalLoop=1;jettySize=auto;html=1;exitX=0.5;exitY=0;exitDx=0;exitDy=0;fontFamily=Times New Roman;fontSize=11;startArrow=none;startFill=0;endArrow=none;endFill=0;" parent="1" source="-zpiWiMWNnFgHcxVn4J2-4" edge="1">
          <mxGeometry relative="1" as="geometry">
            <mxPoint x="296.1724137931035" y="-390" as="targetPoint" />
          </mxGeometry>
        </mxCell>
        <mxCell id="-zpiWiMWNnFgHcxVn4J2-319" style="edgeStyle=orthogonalEdgeStyle;rounded=0;orthogonalLoop=1;jettySize=auto;html=1;exitX=0.5;exitY=1;exitDx=0;exitDy=0;entryX=0.5;entryY=1;entryDx=0;entryDy=0;fontFamily=Times New Roman;fontSize=11;startArrow=none;startFill=0;endArrow=classicThin;endFill=1;" parent="1" source="-zpiWiMWNnFgHcxVn4J2-4" target="-zpiWiMWNnFgHcxVn4J2-11" edge="1">
          <mxGeometry relative="1" as="geometry">
            <Array as="points">
              <mxPoint x="296" y="-320" />
              <mxPoint x="706" y="-320" />
            </Array>
          </mxGeometry>
        </mxCell>
        <mxCell id="-zpiWiMWNnFgHcxVn4J2-4" value="&lt;font style=&quot;font-size: 11px;&quot; face=&quot;Times New Roman&quot;&gt;CustID&lt;/font&gt;" style="rounded=0;whiteSpace=wrap;html=1;" parent="1" vertex="1">
          <mxGeometry x="271" y="-365" width="50" height="20" as="geometry" />
        </mxCell>
        <mxCell id="-zpiWiMWNnFgHcxVn4J2-64" style="edgeStyle=orthogonalEdgeStyle;rounded=0;orthogonalLoop=1;jettySize=auto;html=1;exitX=0.5;exitY=0;exitDx=0;exitDy=0;fontFamily=Times New Roman;fontSize=11;startArrow=classicThin;startFill=1;endArrow=none;endFill=0;" parent="1" source="-zpiWiMWNnFgHcxVn4J2-5" edge="1">
          <mxGeometry relative="1" as="geometry">
            <mxPoint x="356.1724137931035" y="-390" as="targetPoint" />
          </mxGeometry>
        </mxCell>
        <mxCell id="-zpiWiMWNnFgHcxVn4J2-81" style="edgeStyle=orthogonalEdgeStyle;rounded=0;orthogonalLoop=1;jettySize=auto;html=1;exitX=0.5;exitY=1;exitDx=0;exitDy=0;fontFamily=Times New Roman;fontSize=11;startArrow=classicThin;startFill=1;endArrow=none;endFill=0;" parent="1" source="-zpiWiMWNnFgHcxVn4J2-5" edge="1">
          <mxGeometry relative="1" as="geometry">
            <mxPoint x="355.85714285714283" y="-320" as="targetPoint" />
            <Array as="points">
              <mxPoint x="356" y="-340" />
              <mxPoint x="356" y="-340" />
            </Array>
          </mxGeometry>
        </mxCell>
        <mxCell id="-zpiWiMWNnFgHcxVn4J2-5" value="&lt;font style=&quot;font-size: 11px;&quot; face=&quot;Times New Roman&quot;&gt;Cus_Name&lt;/font&gt;" style="rounded=0;whiteSpace=wrap;html=1;" parent="1" vertex="1">
          <mxGeometry x="321" y="-365" width="70" height="20" as="geometry" />
        </mxCell>
        <mxCell id="-zpiWiMWNnFgHcxVn4J2-65" style="edgeStyle=orthogonalEdgeStyle;rounded=0;orthogonalLoop=1;jettySize=auto;html=1;exitX=0.5;exitY=0;exitDx=0;exitDy=0;fontFamily=Times New Roman;fontSize=11;startArrow=classicThin;startFill=1;endArrow=none;endFill=0;" parent="1" source="-zpiWiMWNnFgHcxVn4J2-6" edge="1">
          <mxGeometry relative="1" as="geometry">
            <mxPoint x="426" y="-390" as="targetPoint" />
          </mxGeometry>
        </mxCell>
        <mxCell id="-zpiWiMWNnFgHcxVn4J2-83" style="edgeStyle=orthogonalEdgeStyle;rounded=0;orthogonalLoop=1;jettySize=auto;html=1;exitX=0.5;exitY=1;exitDx=0;exitDy=0;fontFamily=Times New Roman;fontSize=11;startArrow=classicThin;startFill=1;endArrow=none;endFill=0;" parent="1" source="-zpiWiMWNnFgHcxVn4J2-6" edge="1">
          <mxGeometry relative="1" as="geometry">
            <mxPoint x="425.8275862068966" y="-319.99999999999994" as="targetPoint" />
          </mxGeometry>
        </mxCell>
        <mxCell id="-zpiWiMWNnFgHcxVn4J2-6" value="&lt;font style=&quot;font-size: 11px;&quot; face=&quot;Times New Roman&quot;&gt;Cus_Email&lt;/font&gt;" style="rounded=0;whiteSpace=wrap;html=1;" parent="1" vertex="1">
          <mxGeometry x="391" y="-365" width="70" height="20" as="geometry" />
        </mxCell>
        <mxCell id="-zpiWiMWNnFgHcxVn4J2-66" style="edgeStyle=orthogonalEdgeStyle;rounded=0;orthogonalLoop=1;jettySize=auto;html=1;exitX=0.5;exitY=0;exitDx=0;exitDy=0;fontFamily=Times New Roman;fontSize=11;startArrow=classicThin;startFill=1;endArrow=none;endFill=0;" parent="1" source="-zpiWiMWNnFgHcxVn4J2-7" edge="1">
          <mxGeometry relative="1" as="geometry">
            <mxPoint x="486" y="-390" as="targetPoint" />
          </mxGeometry>
        </mxCell>
        <mxCell id="-zpiWiMWNnFgHcxVn4J2-84" style="edgeStyle=orthogonalEdgeStyle;rounded=0;orthogonalLoop=1;jettySize=auto;html=1;exitX=0.5;exitY=1;exitDx=0;exitDy=0;fontFamily=Times New Roman;fontSize=11;startArrow=classicThin;startFill=1;endArrow=none;endFill=0;" parent="1" source="-zpiWiMWNnFgHcxVn4J2-7" edge="1">
          <mxGeometry relative="1" as="geometry">
            <mxPoint x="485.8571428571428" y="-320" as="targetPoint" />
          </mxGeometry>
        </mxCell>
        <mxCell id="-zpiWiMWNnFgHcxVn4J2-7" value="&lt;font style=&quot;font-size: 11px;&quot; face=&quot;Times New Roman&quot;&gt;Balance&lt;/font&gt;&lt;span style=&quot;color: rgba(0, 0, 0, 0); font-family: monospace; font-size: 0px; text-align: start;&quot;&gt;%3CmxGraphModel%3E%3Croot%3E%3CmxCell%20id%3D%220%22%2F%3E%3CmxCell%20id%3D%221%22%20parent%3D%220%22%2F%3E%3CmxCell%20id%3D%222%22%20value%3D%22%26lt%3Bfont%20style%3D%26quot%3Bfont-size%3A%2011px%3B%26quot%3B%20face%3D%26quot%3BTimes%20New%20Roman%26quot%3B%26gt%3BOrder%23%26lt%3B%2Ffont%26gt%3B%22%20style%3D%22rounded%3D0%3BwhiteSpace%3Dwrap%3Bhtml%3D1%3B%22%20vertex%3D%221%22%20parent%3D%221%22%3E%3CmxGeometry%20x%3D%2270%22%20y%3D%22210%22%20width%3D%2250%22%20height%3D%2220%22%20as%3D%22geometry%22%2F%3E%3C%2FmxCell%3E%3C%2Froot%3E%3C%2FmxGraphModel%3E&lt;/span&gt;" style="rounded=0;whiteSpace=wrap;html=1;" parent="1" vertex="1">
          <mxGeometry x="461" y="-365" width="50" height="20" as="geometry" />
        </mxCell>
        <mxCell id="-zpiWiMWNnFgHcxVn4J2-67" style="edgeStyle=orthogonalEdgeStyle;rounded=0;orthogonalLoop=1;jettySize=auto;html=1;exitX=0.5;exitY=0;exitDx=0;exitDy=0;fontFamily=Times New Roman;fontSize=11;startArrow=classicThin;startFill=1;endArrow=none;endFill=0;" parent="1" source="-zpiWiMWNnFgHcxVn4J2-8" edge="1">
          <mxGeometry relative="1" as="geometry">
            <mxPoint x="546" y="-390" as="targetPoint" />
          </mxGeometry>
        </mxCell>
        <mxCell id="-zpiWiMWNnFgHcxVn4J2-320" style="edgeStyle=orthogonalEdgeStyle;rounded=0;orthogonalLoop=1;jettySize=auto;html=1;exitX=0.5;exitY=1;exitDx=0;exitDy=0;fontFamily=Times New Roman;fontSize=11;startArrow=classicThin;startFill=1;endArrow=none;endFill=0;" parent="1" source="-zpiWiMWNnFgHcxVn4J2-8" edge="1">
          <mxGeometry relative="1" as="geometry">
            <mxPoint x="545.7096774193549" y="-320" as="targetPoint" />
          </mxGeometry>
        </mxCell>
        <mxCell id="-zpiWiMWNnFgHcxVn4J2-8" value="&lt;font style=&quot;font-size: 11px;&quot; face=&quot;Times New Roman&quot;&gt;Credit_Limit&lt;/font&gt;" style="rounded=0;whiteSpace=wrap;html=1;" parent="1" vertex="1">
          <mxGeometry x="511" y="-365" width="70" height="20" as="geometry" />
        </mxCell>
        <mxCell id="-zpiWiMWNnFgHcxVn4J2-68" style="edgeStyle=orthogonalEdgeStyle;rounded=0;orthogonalLoop=1;jettySize=auto;html=1;exitX=0.5;exitY=0;exitDx=0;exitDy=0;fontFamily=Times New Roman;fontSize=11;startArrow=none;startFill=0;endArrow=none;endFill=0;" parent="1" source="-zpiWiMWNnFgHcxVn4J2-9" edge="1">
          <mxGeometry relative="1" as="geometry">
            <mxPoint x="606" y="-390" as="targetPoint" />
          </mxGeometry>
        </mxCell>
        <mxCell id="-zpiWiMWNnFgHcxVn4J2-321" style="edgeStyle=orthogonalEdgeStyle;rounded=0;orthogonalLoop=1;jettySize=auto;html=1;exitX=0.5;exitY=1;exitDx=0;exitDy=0;fontFamily=Times New Roman;fontSize=11;startArrow=classicThin;startFill=1;endArrow=none;endFill=0;" parent="1" source="-zpiWiMWNnFgHcxVn4J2-9" edge="1">
          <mxGeometry relative="1" as="geometry">
            <mxPoint x="605.7096774193549" y="-320" as="targetPoint" />
          </mxGeometry>
        </mxCell>
        <mxCell id="-zpiWiMWNnFgHcxVn4J2-9" value="&lt;font style=&quot;font-size: 11px;&quot; face=&quot;Times New Roman&quot;&gt;RepID&lt;/font&gt;" style="rounded=0;whiteSpace=wrap;html=1;" parent="1" vertex="1">
          <mxGeometry x="581" y="-365" width="50" height="20" as="geometry" />
        </mxCell>
        <mxCell id="-zpiWiMWNnFgHcxVn4J2-69" style="edgeStyle=orthogonalEdgeStyle;rounded=0;orthogonalLoop=1;jettySize=auto;html=1;exitX=0.5;exitY=0;exitDx=0;exitDy=0;fontFamily=Times New Roman;fontSize=11;startArrow=classicThin;startFill=1;endArrow=none;endFill=0;" parent="1" source="-zpiWiMWNnFgHcxVn4J2-10" edge="1">
          <mxGeometry relative="1" as="geometry">
            <mxPoint x="656.2857142857143" y="-390" as="targetPoint" />
          </mxGeometry>
        </mxCell>
        <mxCell id="-zpiWiMWNnFgHcxVn4J2-322" style="edgeStyle=orthogonalEdgeStyle;rounded=0;orthogonalLoop=1;jettySize=auto;html=1;exitX=0.5;exitY=1;exitDx=0;exitDy=0;fontFamily=Times New Roman;fontSize=11;startArrow=classicThin;startFill=1;endArrow=none;endFill=0;" parent="1" source="-zpiWiMWNnFgHcxVn4J2-10" edge="1">
          <mxGeometry relative="1" as="geometry">
            <mxPoint x="656.0322580645161" y="-320" as="targetPoint" />
          </mxGeometry>
        </mxCell>
        <mxCell id="-zpiWiMWNnFgHcxVn4J2-10" value="&lt;font style=&quot;font-size: 11px;&quot; face=&quot;Times New Roman&quot;&gt;FName&lt;/font&gt;" style="rounded=0;whiteSpace=wrap;html=1;" parent="1" vertex="1">
          <mxGeometry x="631" y="-365" width="50" height="20" as="geometry" />
        </mxCell>
        <mxCell id="-zpiWiMWNnFgHcxVn4J2-70" style="edgeStyle=orthogonalEdgeStyle;rounded=0;orthogonalLoop=1;jettySize=auto;html=1;exitX=0.5;exitY=0;exitDx=0;exitDy=0;fontFamily=Times New Roman;fontSize=11;startArrow=classicThin;startFill=1;endArrow=none;endFill=0;" parent="1" source="-zpiWiMWNnFgHcxVn4J2-11" edge="1">
          <mxGeometry relative="1" as="geometry">
            <mxPoint x="706.4761904761904" y="-390" as="targetPoint" />
          </mxGeometry>
        </mxCell>
        <mxCell id="-zpiWiMWNnFgHcxVn4J2-11" value="&lt;font style=&quot;font-size: 11px;&quot; face=&quot;Times New Roman&quot;&gt;LName&lt;/font&gt;" style="rounded=0;whiteSpace=wrap;html=1;" parent="1" vertex="1">
          <mxGeometry x="681" y="-365" width="50" height="20" as="geometry" />
        </mxCell>
        <mxCell id="-zpiWiMWNnFgHcxVn4J2-71" style="edgeStyle=orthogonalEdgeStyle;rounded=0;orthogonalLoop=1;jettySize=auto;html=1;exitX=0.5;exitY=0;exitDx=0;exitDy=0;fontFamily=Times New Roman;fontSize=11;startArrow=none;startFill=0;endArrow=none;endFill=0;" parent="1" source="-zpiWiMWNnFgHcxVn4J2-12" edge="1">
          <mxGeometry relative="1" as="geometry">
            <mxPoint x="755.9767441860465" y="-390" as="targetPoint" />
          </mxGeometry>
        </mxCell>
        <mxCell id="3e-uo4Sejg_3FfOKzJGx-11" style="edgeStyle=orthogonalEdgeStyle;rounded=0;orthogonalLoop=1;jettySize=auto;html=1;exitX=0.5;exitY=1;exitDx=0;exitDy=0;entryX=0.5;entryY=1;entryDx=0;entryDy=0;" parent="1" source="-zpiWiMWNnFgHcxVn4J2-12" target="-zpiWiMWNnFgHcxVn4J2-16" edge="1">
          <mxGeometry relative="1" as="geometry">
            <Array as="points">
              <mxPoint x="756" y="-320" />
              <mxPoint x="891" y="-320" />
            </Array>
          </mxGeometry>
        </mxCell>
        <mxCell id="-zpiWiMWNnFgHcxVn4J2-12" value="&lt;font style=&quot;font-size: 11px;&quot; face=&quot;Times New Roman&quot;&gt;&lt;u&gt;Item#&lt;/u&gt;&lt;/font&gt;" style="rounded=0;whiteSpace=wrap;html=1;" parent="1" vertex="1">
          <mxGeometry x="731" y="-365" width="50" height="20" as="geometry" />
        </mxCell>
        <mxCell id="-zpiWiMWNnFgHcxVn4J2-72" style="edgeStyle=orthogonalEdgeStyle;rounded=0;orthogonalLoop=1;jettySize=auto;html=1;exitX=0.5;exitY=0;exitDx=0;exitDy=0;fontFamily=Times New Roman;fontSize=11;startArrow=classicThin;startFill=1;endArrow=none;endFill=0;" parent="1" source="-zpiWiMWNnFgHcxVn4J2-13" edge="1">
          <mxGeometry relative="1" as="geometry">
            <mxPoint x="806.2093023255815" y="-390" as="targetPoint" />
          </mxGeometry>
        </mxCell>
        <mxCell id="3e-uo4Sejg_3FfOKzJGx-17" style="edgeStyle=orthogonalEdgeStyle;rounded=0;orthogonalLoop=1;jettySize=auto;html=1;exitX=0.5;exitY=1;exitDx=0;exitDy=0;startArrow=classicThin;startFill=1;endArrow=none;endFill=0;" parent="1" source="-zpiWiMWNnFgHcxVn4J2-13" edge="1">
          <mxGeometry relative="1" as="geometry">
            <mxPoint x="805.9047619047619" y="-320" as="targetPoint" />
          </mxGeometry>
        </mxCell>
        <mxCell id="-zpiWiMWNnFgHcxVn4J2-13" value="&lt;font style=&quot;font-size: 11px;&quot; face=&quot;Times New Roman&quot;&gt;Name&lt;/font&gt;" style="rounded=0;whiteSpace=wrap;html=1;" parent="1" vertex="1">
          <mxGeometry x="781" y="-365" width="50" height="20" as="geometry" />
        </mxCell>
        <mxCell id="-zpiWiMWNnFgHcxVn4J2-73" style="edgeStyle=orthogonalEdgeStyle;rounded=0;orthogonalLoop=1;jettySize=auto;html=1;exitX=0.5;exitY=0;exitDx=0;exitDy=0;fontFamily=Times New Roman;fontSize=11;startArrow=classicThin;startFill=1;endArrow=none;endFill=0;" parent="1" source="-zpiWiMWNnFgHcxVn4J2-15" edge="1">
          <mxGeometry relative="1" as="geometry">
            <mxPoint x="851.4000000000001" y="-390" as="targetPoint" />
          </mxGeometry>
        </mxCell>
        <mxCell id="3e-uo4Sejg_3FfOKzJGx-18" style="edgeStyle=orthogonalEdgeStyle;rounded=0;orthogonalLoop=1;jettySize=auto;html=1;exitX=0.5;exitY=1;exitDx=0;exitDy=0;startArrow=classicThin;startFill=1;endArrow=none;endFill=0;" parent="1" source="-zpiWiMWNnFgHcxVn4J2-15" edge="1">
          <mxGeometry relative="1" as="geometry">
            <mxPoint x="851.1428571428571" y="-320" as="targetPoint" />
          </mxGeometry>
        </mxCell>
        <mxCell id="-zpiWiMWNnFgHcxVn4J2-15" value="&lt;font style=&quot;font-size: 11px;&quot; face=&quot;Times New Roman&quot;&gt;Class&lt;/font&gt;" style="rounded=0;whiteSpace=wrap;html=1;" parent="1" vertex="1">
          <mxGeometry x="831" y="-365" width="40" height="20" as="geometry" />
        </mxCell>
        <mxCell id="-zpiWiMWNnFgHcxVn4J2-74" style="edgeStyle=orthogonalEdgeStyle;rounded=0;orthogonalLoop=1;jettySize=auto;html=1;exitX=0.5;exitY=0;exitDx=0;exitDy=0;fontFamily=Times New Roman;fontSize=11;startArrow=classicThin;startFill=1;endArrow=none;endFill=0;" parent="1" source="-zpiWiMWNnFgHcxVn4J2-16" edge="1">
          <mxGeometry relative="1" as="geometry">
            <mxPoint x="890.8461538461538" y="-390" as="targetPoint" />
          </mxGeometry>
        </mxCell>
        <mxCell id="-zpiWiMWNnFgHcxVn4J2-16" value="&lt;font style=&quot;font-size: 11px;&quot; face=&quot;Times New Roman&quot;&gt;Price&lt;/font&gt;" style="rounded=0;whiteSpace=wrap;html=1;" parent="1" vertex="1">
          <mxGeometry x="871" y="-365" width="40" height="20" as="geometry" />
        </mxCell>
        <mxCell id="-zpiWiMWNnFgHcxVn4J2-75" style="edgeStyle=orthogonalEdgeStyle;rounded=0;orthogonalLoop=1;jettySize=auto;html=1;exitX=0.5;exitY=0;exitDx=0;exitDy=0;fontFamily=Times New Roman;fontSize=11;startArrow=classicThin;startFill=1;endArrow=none;endFill=0;" parent="1" source="-zpiWiMWNnFgHcxVn4J2-17" edge="1">
          <mxGeometry relative="1" as="geometry">
            <mxPoint x="951.4000000000001" y="-390" as="targetPoint" />
          </mxGeometry>
        </mxCell>
        <mxCell id="-zpiWiMWNnFgHcxVn4J2-17" value="&lt;font style=&quot;font-size: 11px;&quot; face=&quot;Times New Roman&quot;&gt;Num_Ordered&lt;/font&gt;" style="rounded=0;whiteSpace=wrap;html=1;" parent="1" vertex="1">
          <mxGeometry x="911" y="-365" width="80" height="20" as="geometry" />
        </mxCell>
        <mxCell id="-zpiWiMWNnFgHcxVn4J2-18" value="&lt;font style=&quot;font-size: 11px;&quot; face=&quot;Times New Roman&quot;&gt;Quoted_Price&lt;/font&gt;" style="rounded=0;whiteSpace=wrap;html=1;" parent="1" vertex="1">
          <mxGeometry x="991" y="-365" width="80" height="20" as="geometry" />
        </mxCell>
        <mxCell id="-zpiWiMWNnFgHcxVn4J2-331" value="PK Dependency" style="text;html=1;resizable=0;autosize=1;align=center;verticalAlign=middle;points=[];fillColor=none;strokeColor=none;rounded=0;fontFamily=Times New Roman;fontSize=11;" parent="1" vertex="1">
          <mxGeometry x="905" y="-428" width="100" height="30" as="geometry" />
        </mxCell>
        <mxCell id="-zpiWiMWNnFgHcxVn4J2-341" style="edgeStyle=orthogonalEdgeStyle;rounded=0;orthogonalLoop=1;jettySize=auto;html=1;exitX=0.5;exitY=1;exitDx=0;exitDy=0;entryX=0.5;entryY=1;entryDx=0;entryDy=0;fontFamily=Times New Roman;fontSize=11;startArrow=classicThin;startFill=1;endArrow=classicThin;endFill=1;" parent="1" edge="1">
          <mxGeometry relative="1" as="geometry">
            <mxPoint x="296" y="-300" as="sourcePoint" />
            <mxPoint x="706" y="-300" as="targetPoint" />
            <Array as="points">
              <mxPoint x="296" y="-275" />
              <mxPoint x="706" y="-275" />
            </Array>
          </mxGeometry>
        </mxCell>
        <mxCell id="-zpiWiMWNnFgHcxVn4J2-342" style="edgeStyle=orthogonalEdgeStyle;rounded=0;orthogonalLoop=1;jettySize=auto;html=1;exitX=0.5;exitY=1;exitDx=0;exitDy=0;fontFamily=Times New Roman;fontSize=11;startArrow=classicThin;startFill=1;endArrow=none;endFill=0;" parent="1" edge="1">
          <mxGeometry relative="1" as="geometry">
            <mxPoint x="355.8888888888889" y="-275" as="targetPoint" />
            <mxPoint x="356" y="-300" as="sourcePoint" />
          </mxGeometry>
        </mxCell>
        <mxCell id="-zpiWiMWNnFgHcxVn4J2-343" style="edgeStyle=orthogonalEdgeStyle;rounded=0;orthogonalLoop=1;jettySize=auto;html=1;exitX=0.5;exitY=1;exitDx=0;exitDy=0;fontFamily=Times New Roman;fontSize=11;startArrow=none;startFill=0;endArrow=none;endFill=0;" parent="1" edge="1">
          <mxGeometry relative="1" as="geometry">
            <mxPoint x="426.1111111111111" y="-275" as="targetPoint" />
            <mxPoint x="426" y="-300" as="sourcePoint" />
          </mxGeometry>
        </mxCell>
        <mxCell id="-zpiWiMWNnFgHcxVn4J2-344" style="edgeStyle=orthogonalEdgeStyle;rounded=0;orthogonalLoop=1;jettySize=auto;html=1;exitX=0.5;exitY=1;exitDx=0;exitDy=0;fontFamily=Times New Roman;fontSize=11;startArrow=classicThin;startFill=1;endArrow=none;endFill=0;" parent="1" edge="1">
          <mxGeometry relative="1" as="geometry">
            <mxPoint x="486.1111111111111" y="-275" as="targetPoint" />
            <mxPoint x="486" y="-300" as="sourcePoint" />
          </mxGeometry>
        </mxCell>
        <mxCell id="-zpiWiMWNnFgHcxVn4J2-345" style="edgeStyle=orthogonalEdgeStyle;rounded=0;orthogonalLoop=1;jettySize=auto;html=1;exitX=0.5;exitY=1;exitDx=0;exitDy=0;fontFamily=Times New Roman;fontSize=11;startArrow=classicThin;startFill=1;endArrow=none;endFill=0;" parent="1" edge="1">
          <mxGeometry relative="1" as="geometry">
            <mxPoint x="545.7096774193549" y="-275" as="targetPoint" />
            <mxPoint x="546" y="-300" as="sourcePoint" />
          </mxGeometry>
        </mxCell>
        <mxCell id="-zpiWiMWNnFgHcxVn4J2-346" style="edgeStyle=orthogonalEdgeStyle;rounded=0;orthogonalLoop=1;jettySize=auto;html=1;exitX=0.5;exitY=1;exitDx=0;exitDy=0;fontFamily=Times New Roman;fontSize=11;startArrow=classicThin;startFill=1;endArrow=none;endFill=0;" parent="1" edge="1">
          <mxGeometry relative="1" as="geometry">
            <mxPoint x="605.7096774193549" y="-275" as="targetPoint" />
            <mxPoint x="606" y="-300" as="sourcePoint" />
          </mxGeometry>
        </mxCell>
        <mxCell id="-zpiWiMWNnFgHcxVn4J2-347" style="edgeStyle=orthogonalEdgeStyle;rounded=0;orthogonalLoop=1;jettySize=auto;html=1;exitX=0.5;exitY=1;exitDx=0;exitDy=0;fontFamily=Times New Roman;fontSize=11;startArrow=classicThin;startFill=1;endArrow=none;endFill=0;" parent="1" edge="1">
          <mxGeometry relative="1" as="geometry">
            <mxPoint x="656.0322580645161" y="-275" as="targetPoint" />
            <mxPoint x="656" y="-300" as="sourcePoint" />
          </mxGeometry>
        </mxCell>
        <mxCell id="-zpiWiMWNnFgHcxVn4J2-351" style="edgeStyle=orthogonalEdgeStyle;rounded=0;orthogonalLoop=1;jettySize=auto;html=1;exitX=0.5;exitY=1;exitDx=0;exitDy=0;entryX=0.5;entryY=1;entryDx=0;entryDy=0;fontFamily=Times New Roman;fontSize=11;startArrow=none;startFill=0;endArrow=classicThin;endFill=1;" parent="1" edge="1">
          <mxGeometry relative="1" as="geometry">
            <mxPoint x="606" y="-266.05" as="sourcePoint" />
            <mxPoint x="706" y="-266.05" as="targetPoint" />
            <Array as="points">
              <mxPoint x="606" y="-240.05" />
              <mxPoint x="706" y="-240.05" />
            </Array>
          </mxGeometry>
        </mxCell>
        <mxCell id="-zpiWiMWNnFgHcxVn4J2-352" style="edgeStyle=orthogonalEdgeStyle;rounded=0;orthogonalLoop=1;jettySize=auto;html=1;exitX=0.5;exitY=1;exitDx=0;exitDy=0;fontFamily=Times New Roman;fontSize=11;startArrow=classicThin;startFill=1;endArrow=none;endFill=0;" parent="1" edge="1">
          <mxGeometry relative="1" as="geometry">
            <mxPoint x="655.7777777777778" y="-240.05" as="targetPoint" />
            <mxPoint x="656" y="-266.05" as="sourcePoint" />
          </mxGeometry>
        </mxCell>
        <mxCell id="-zpiWiMWNnFgHcxVn4J2-353" value="Transitive Dependency" style="text;html=1;resizable=0;autosize=1;align=center;verticalAlign=middle;points=[];fillColor=none;strokeColor=none;rounded=0;fontFamily=Times New Roman;fontSize=11;" parent="1" vertex="1">
          <mxGeometry x="591" y="-229" width="130" height="30" as="geometry" />
        </mxCell>
        <mxCell id="-zpiWiMWNnFgHcxVn4J2-401" value="&lt;b&gt;&lt;font style=&quot;font-size: 14px;&quot;&gt;CUST_REP_ORDER_ITEM&lt;/font&gt;&lt;/b&gt;" style="text;html=1;resizable=0;autosize=1;align=center;verticalAlign=middle;points=[];fillColor=none;strokeColor=none;rounded=0;fontFamily=Times New Roman;fontSize=11;" parent="1" vertex="1">
          <mxGeometry x="151" y="-450" width="200" height="30" as="geometry" />
        </mxCell>
        <mxCell id="-zpiWiMWNnFgHcxVn4J2-403" value="&lt;b style=&quot;&quot;&gt;&lt;font style=&quot;font-size: 24px;&quot;&gt;&lt;u style=&quot;&quot;&gt;FD Diagram of 1NF&lt;/u&gt;&lt;/font&gt;&lt;/b&gt;" style="text;html=1;resizable=0;autosize=1;align=center;verticalAlign=middle;points=[];fillColor=none;strokeColor=none;rounded=0;fontFamily=Times New Roman;fontSize=11;" parent="1" vertex="1">
          <mxGeometry x="455" y="-650" width="230" height="40" as="geometry" />
        </mxCell>
        <mxCell id="-zpiWiMWNnFgHcxVn4J2-404" value="&lt;b style=&quot;&quot;&gt;&lt;u style=&quot;&quot;&gt;&lt;font style=&quot;font-size: 24px;&quot;&gt;Second Normal Form&lt;/font&gt;&lt;/u&gt;&lt;/b&gt;" style="text;html=1;resizable=0;autosize=1;align=center;verticalAlign=middle;points=[];fillColor=none;strokeColor=none;rounded=0;fontFamily=Times New Roman;fontSize=11;" parent="1" vertex="1">
          <mxGeometry x="441" y="170" width="240" height="40" as="geometry" />
        </mxCell>
        <mxCell id="-zpiWiMWNnFgHcxVn4J2-405" value="&lt;b style=&quot;&quot;&gt;&lt;u style=&quot;&quot;&gt;&lt;font style=&quot;font-size: 24px;&quot;&gt;Third Normal Form&lt;/font&gt;&lt;/u&gt;&lt;/b&gt;" style="text;html=1;resizable=0;autosize=1;align=center;verticalAlign=middle;points=[];fillColor=none;strokeColor=none;rounded=0;fontFamily=Times New Roman;fontSize=11;" parent="1" vertex="1">
          <mxGeometry x="440" y="990" width="230" height="40" as="geometry" />
        </mxCell>
        <mxCell id="3e-uo4Sejg_3FfOKzJGx-13" value="Partial Dependency" style="text;html=1;resizable=0;autosize=1;align=center;verticalAlign=middle;points=[];fillColor=none;strokeColor=none;rounded=0;fontFamily=Times New Roman;fontSize=11;" parent="1" vertex="1">
          <mxGeometry x="161" y="-330" width="120" height="30" as="geometry" />
        </mxCell>
        <mxCell id="3e-uo4Sejg_3FfOKzJGx-14" value="Partial Dependency" style="text;html=1;resizable=0;autosize=1;align=center;verticalAlign=middle;points=[];fillColor=none;strokeColor=none;rounded=0;fontFamily=Times New Roman;fontSize=11;" parent="1" vertex="1">
          <mxGeometry x="746" y="-330" width="120" height="30" as="geometry" />
        </mxCell>
        <mxCell id="3e-uo4Sejg_3FfOKzJGx-100" style="edgeStyle=orthogonalEdgeStyle;rounded=0;orthogonalLoop=1;jettySize=auto;html=1;exitX=0.5;exitY=0;exitDx=0;exitDy=0;entryX=0.5;entryY=0;entryDx=0;entryDy=0;startArrow=none;startFill=0;endArrow=classicThin;endFill=1;" parent="1" source="3e-uo4Sejg_3FfOKzJGx-36" target="3e-uo4Sejg_3FfOKzJGx-38" edge="1">
          <mxGeometry relative="1" as="geometry" />
        </mxCell>
        <mxCell id="3e-uo4Sejg_3FfOKzJGx-36" value="&lt;font style=&quot;font-size: 11px;&quot; face=&quot;Times New Roman&quot;&gt;&lt;u&gt;Order#&lt;/u&gt;&lt;/font&gt;" style="rounded=0;whiteSpace=wrap;html=1;" parent="1" vertex="1">
          <mxGeometry x="225" y="375" width="50" height="20" as="geometry" />
        </mxCell>
        <mxCell id="3e-uo4Sejg_3FfOKzJGx-38" value="&lt;font style=&quot;font-size: 11px;&quot; face=&quot;Times New Roman&quot;&gt;Order_Date&lt;/font&gt;" style="rounded=0;whiteSpace=wrap;html=1;" parent="1" vertex="1">
          <mxGeometry x="275" y="375" width="70" height="20" as="geometry" />
        </mxCell>
        <mxCell id="3e-uo4Sejg_3FfOKzJGx-101" style="edgeStyle=orthogonalEdgeStyle;rounded=0;orthogonalLoop=1;jettySize=auto;html=1;exitX=0.5;exitY=0;exitDx=0;exitDy=0;entryX=0.5;entryY=0;entryDx=0;entryDy=0;startArrow=none;startFill=0;endArrow=classicThin;endFill=1;" parent="1" source="3e-uo4Sejg_3FfOKzJGx-92" target="3e-uo4Sejg_3FfOKzJGx-97" edge="1">
          <mxGeometry relative="1" as="geometry" />
        </mxCell>
        <mxCell id="3e-uo4Sejg_3FfOKzJGx-92" value="&lt;font style=&quot;font-size: 11px;&quot; face=&quot;Times New Roman&quot;&gt;&lt;u&gt;Item#&lt;/u&gt;&lt;/font&gt;" style="rounded=0;whiteSpace=wrap;html=1;" parent="1" vertex="1">
          <mxGeometry x="405" y="375" width="50" height="20" as="geometry" />
        </mxCell>
        <mxCell id="3e-uo4Sejg_3FfOKzJGx-103" style="edgeStyle=orthogonalEdgeStyle;rounded=0;orthogonalLoop=1;jettySize=auto;html=1;exitX=0.5;exitY=0;exitDx=0;exitDy=0;startArrow=classicThin;startFill=1;endArrow=none;endFill=0;" parent="1" source="3e-uo4Sejg_3FfOKzJGx-94" edge="1">
          <mxGeometry relative="1" as="geometry">
            <mxPoint x="480.16666666666674" y="356" as="targetPoint" />
          </mxGeometry>
        </mxCell>
        <mxCell id="3e-uo4Sejg_3FfOKzJGx-94" value="&lt;font style=&quot;font-size: 11px;&quot; face=&quot;Times New Roman&quot;&gt;Name&lt;/font&gt;" style="rounded=0;whiteSpace=wrap;html=1;" parent="1" vertex="1">
          <mxGeometry x="455" y="375" width="50" height="20" as="geometry" />
        </mxCell>
        <mxCell id="3e-uo4Sejg_3FfOKzJGx-102" style="edgeStyle=orthogonalEdgeStyle;rounded=0;orthogonalLoop=1;jettySize=auto;html=1;exitX=0.5;exitY=0;exitDx=0;exitDy=0;startArrow=classicThin;startFill=1;endArrow=none;endFill=0;" parent="1" source="3e-uo4Sejg_3FfOKzJGx-96" edge="1">
          <mxGeometry relative="1" as="geometry">
            <mxPoint x="525.1666666666667" y="356" as="targetPoint" />
          </mxGeometry>
        </mxCell>
        <mxCell id="3e-uo4Sejg_3FfOKzJGx-96" value="&lt;font style=&quot;font-size: 11px;&quot; face=&quot;Times New Roman&quot;&gt;Class&lt;/font&gt;" style="rounded=0;whiteSpace=wrap;html=1;" parent="1" vertex="1">
          <mxGeometry x="505" y="375" width="40" height="20" as="geometry" />
        </mxCell>
        <mxCell id="3e-uo4Sejg_3FfOKzJGx-97" value="&lt;font style=&quot;font-size: 11px;&quot; face=&quot;Times New Roman&quot;&gt;Price&lt;/font&gt;" style="rounded=0;whiteSpace=wrap;html=1;" parent="1" vertex="1">
          <mxGeometry x="545" y="375" width="40" height="20" as="geometry" />
        </mxCell>
        <mxCell id="3e-uo4Sejg_3FfOKzJGx-124" value="PK" style="text;html=1;resizable=0;autosize=1;align=center;verticalAlign=middle;points=[];fillColor=none;strokeColor=none;rounded=0;fontFamily=Times New Roman;fontSize=11;" parent="1" vertex="1">
          <mxGeometry x="315" y="345" width="40" height="30" as="geometry" />
        </mxCell>
        <mxCell id="3e-uo4Sejg_3FfOKzJGx-125" value="PK" style="text;html=1;resizable=0;autosize=1;align=center;verticalAlign=middle;points=[];fillColor=none;strokeColor=none;rounded=0;fontFamily=Times New Roman;fontSize=11;" parent="1" vertex="1">
          <mxGeometry x="565" y="345" width="40" height="30" as="geometry" />
        </mxCell>
        <mxCell id="3e-uo4Sejg_3FfOKzJGx-127" value="PK" style="text;html=1;resizable=0;autosize=1;align=center;verticalAlign=middle;points=[];fillColor=none;strokeColor=none;rounded=0;fontFamily=Times New Roman;fontSize=11;" parent="1" vertex="1">
          <mxGeometry x="905" y="429" width="40" height="30" as="geometry" />
        </mxCell>
        <mxCell id="3e-uo4Sejg_3FfOKzJGx-128" value="&lt;span style=&quot;font-size: 14px;&quot;&gt;&lt;b&gt;ORDER&lt;/b&gt;&lt;/span&gt;" style="text;html=1;resizable=0;autosize=1;align=center;verticalAlign=middle;points=[];fillColor=none;strokeColor=none;rounded=0;fontFamily=Times New Roman;fontSize=11;" parent="1" vertex="1">
          <mxGeometry x="225" y="320" width="70" height="30" as="geometry" />
        </mxCell>
        <mxCell id="3e-uo4Sejg_3FfOKzJGx-129" value="&lt;span style=&quot;font-size: 14px;&quot;&gt;&lt;b&gt;ITEM&lt;/b&gt;&lt;/span&gt;" style="text;html=1;resizable=0;autosize=1;align=center;verticalAlign=middle;points=[];fillColor=none;strokeColor=none;rounded=0;fontFamily=Times New Roman;fontSize=11;" parent="1" vertex="1">
          <mxGeometry x="390" y="320" width="60" height="30" as="geometry" />
        </mxCell>
        <mxCell id="3e-uo4Sejg_3FfOKzJGx-131" value="&lt;span style=&quot;font-size: 14px;&quot;&gt;&lt;b&gt;ORDER_CUST_REP&lt;/b&gt;&lt;/span&gt;" style="text;html=1;resizable=0;autosize=1;align=center;verticalAlign=middle;points=[];fillColor=none;strokeColor=none;rounded=0;fontFamily=Times New Roman;fontSize=11;" parent="1" vertex="1">
          <mxGeometry x="225" y="406" width="150" height="30" as="geometry" />
        </mxCell>
        <mxCell id="3e-uo4Sejg_3FfOKzJGx-158" style="edgeStyle=orthogonalEdgeStyle;rounded=0;orthogonalLoop=1;jettySize=auto;html=1;exitX=0.5;exitY=0;exitDx=0;exitDy=0;entryX=0.5;entryY=0;entryDx=0;entryDy=0;startArrow=none;startFill=0;endArrow=classicThin;endFill=1;" parent="1" source="3e-uo4Sejg_3FfOKzJGx-159" target="3e-uo4Sejg_3FfOKzJGx-160" edge="1">
          <mxGeometry relative="1" as="geometry" />
        </mxCell>
        <mxCell id="3e-uo4Sejg_3FfOKzJGx-159" value="&lt;font style=&quot;font-size: 11px;&quot; face=&quot;Times New Roman&quot;&gt;&lt;u&gt;Order#&lt;/u&gt;&lt;/font&gt;" style="rounded=0;whiteSpace=wrap;html=1;" parent="1" vertex="1">
          <mxGeometry x="246" y="1192.5" width="50" height="20" as="geometry" />
        </mxCell>
        <mxCell id="3e-uo4Sejg_3FfOKzJGx-160" value="&lt;font style=&quot;font-size: 11px;&quot; face=&quot;Times New Roman&quot;&gt;Order_Date&lt;/font&gt;" style="rounded=0;whiteSpace=wrap;html=1;" parent="1" vertex="1">
          <mxGeometry x="296" y="1192.5" width="70" height="20" as="geometry" />
        </mxCell>
        <mxCell id="id5w-fibCyRtsWTaa8x1-105" style="edgeStyle=orthogonalEdgeStyle;rounded=0;orthogonalLoop=1;jettySize=auto;html=1;exitX=0.5;exitY=0;exitDx=0;exitDy=0;startArrow=classicThin;startFill=1;endArrow=none;endFill=0;" parent="1" source="3e-uo4Sejg_3FfOKzJGx-162" edge="1">
          <mxGeometry relative="1" as="geometry">
            <mxPoint x="770.9047619047619" y="1171.45" as="targetPoint" />
          </mxGeometry>
        </mxCell>
        <mxCell id="3e-uo4Sejg_3FfOKzJGx-162" value="&lt;font style=&quot;font-size: 11px;&quot; face=&quot;Times New Roman&quot;&gt;Num_Ordered&lt;/font&gt;" style="rounded=0;whiteSpace=wrap;html=1;" parent="1" vertex="1">
          <mxGeometry x="731" y="1195" width="80" height="20" as="geometry" />
        </mxCell>
        <mxCell id="3e-uo4Sejg_3FfOKzJGx-163" value="&lt;font style=&quot;font-size: 11px;&quot; face=&quot;Times New Roman&quot;&gt;Quoted_Price&lt;/font&gt;" style="rounded=0;whiteSpace=wrap;html=1;" parent="1" vertex="1">
          <mxGeometry x="811" y="1195" width="80" height="20" as="geometry" />
        </mxCell>
        <mxCell id="3e-uo4Sejg_3FfOKzJGx-164" style="edgeStyle=orthogonalEdgeStyle;rounded=0;orthogonalLoop=1;jettySize=auto;html=1;exitX=0.5;exitY=0;exitDx=0;exitDy=0;entryX=0.5;entryY=0;entryDx=0;entryDy=0;startArrow=none;startFill=0;endArrow=classicThin;endFill=1;" parent="1" source="3e-uo4Sejg_3FfOKzJGx-165" target="3e-uo4Sejg_3FfOKzJGx-170" edge="1">
          <mxGeometry relative="1" as="geometry" />
        </mxCell>
        <mxCell id="3e-uo4Sejg_3FfOKzJGx-165" value="&lt;font style=&quot;font-size: 11px;&quot; face=&quot;Times New Roman&quot;&gt;&lt;u&gt;Item#&lt;/u&gt;&lt;/font&gt;" style="rounded=0;whiteSpace=wrap;html=1;" parent="1" vertex="1">
          <mxGeometry x="381" y="1195" width="50" height="20" as="geometry" />
        </mxCell>
        <mxCell id="3e-uo4Sejg_3FfOKzJGx-166" style="edgeStyle=orthogonalEdgeStyle;rounded=0;orthogonalLoop=1;jettySize=auto;html=1;exitX=0.5;exitY=0;exitDx=0;exitDy=0;startArrow=classicThin;startFill=1;endArrow=none;endFill=0;" parent="1" source="3e-uo4Sejg_3FfOKzJGx-167" edge="1">
          <mxGeometry relative="1" as="geometry">
            <mxPoint x="456.1666666666665" y="1176" as="targetPoint" />
          </mxGeometry>
        </mxCell>
        <mxCell id="3e-uo4Sejg_3FfOKzJGx-167" value="&lt;font style=&quot;font-size: 11px;&quot; face=&quot;Times New Roman&quot;&gt;Name&lt;/font&gt;" style="rounded=0;whiteSpace=wrap;html=1;" parent="1" vertex="1">
          <mxGeometry x="431" y="1195" width="50" height="20" as="geometry" />
        </mxCell>
        <mxCell id="3e-uo4Sejg_3FfOKzJGx-168" style="edgeStyle=orthogonalEdgeStyle;rounded=0;orthogonalLoop=1;jettySize=auto;html=1;exitX=0.5;exitY=0;exitDx=0;exitDy=0;startArrow=classicThin;startFill=1;endArrow=none;endFill=0;" parent="1" source="3e-uo4Sejg_3FfOKzJGx-169" edge="1">
          <mxGeometry relative="1" as="geometry">
            <mxPoint x="501.1666666666665" y="1176" as="targetPoint" />
          </mxGeometry>
        </mxCell>
        <mxCell id="3e-uo4Sejg_3FfOKzJGx-169" value="&lt;font style=&quot;font-size: 11px;&quot; face=&quot;Times New Roman&quot;&gt;Class&lt;/font&gt;" style="rounded=0;whiteSpace=wrap;html=1;" parent="1" vertex="1">
          <mxGeometry x="481" y="1195" width="40" height="20" as="geometry" />
        </mxCell>
        <mxCell id="3e-uo4Sejg_3FfOKzJGx-170" value="&lt;font style=&quot;font-size: 11px;&quot; face=&quot;Times New Roman&quot;&gt;Price&lt;/font&gt;" style="rounded=0;whiteSpace=wrap;html=1;" parent="1" vertex="1">
          <mxGeometry x="521" y="1195" width="40" height="20" as="geometry" />
        </mxCell>
        <mxCell id="id5w-fibCyRtsWTaa8x1-99" style="edgeStyle=orthogonalEdgeStyle;rounded=0;orthogonalLoop=1;jettySize=auto;html=1;exitX=0.5;exitY=0;exitDx=0;exitDy=0;entryX=0.5;entryY=0;entryDx=0;entryDy=0;startArrow=none;startFill=0;endArrow=classicThin;endFill=1;" parent="1" source="3e-uo4Sejg_3FfOKzJGx-172" target="3e-uo4Sejg_3FfOKzJGx-163" edge="1">
          <mxGeometry relative="1" as="geometry">
            <Array as="points">
              <mxPoint x="606" y="1171.45" />
              <mxPoint x="851" y="1171.45" />
            </Array>
          </mxGeometry>
        </mxCell>
        <mxCell id="3e-uo4Sejg_3FfOKzJGx-172" value="&lt;font style=&quot;font-size: 11px;&quot; face=&quot;Times New Roman&quot;&gt;&lt;u&gt;Order#&lt;/u&gt;&lt;/font&gt;" style="rounded=0;whiteSpace=wrap;html=1;" parent="1" vertex="1">
          <mxGeometry x="581" y="1195" width="50" height="20" as="geometry" />
        </mxCell>
        <mxCell id="id5w-fibCyRtsWTaa8x1-103" style="edgeStyle=orthogonalEdgeStyle;rounded=0;orthogonalLoop=1;jettySize=auto;html=1;exitX=0.5;exitY=0;exitDx=0;exitDy=0;startArrow=none;startFill=0;endArrow=none;endFill=0;" parent="1" source="3e-uo4Sejg_3FfOKzJGx-174" edge="1">
          <mxGeometry relative="1" as="geometry">
            <mxPoint x="656.1428571428571" y="1171.45" as="targetPoint" />
          </mxGeometry>
        </mxCell>
        <mxCell id="3e-uo4Sejg_3FfOKzJGx-174" value="&lt;font style=&quot;font-size: 11px;&quot; face=&quot;Times New Roman&quot;&gt;&lt;u&gt;Item#&lt;/u&gt;&lt;/font&gt;" style="rounded=0;whiteSpace=wrap;html=1;" parent="1" vertex="1">
          <mxGeometry x="631" y="1195" width="50" height="20" as="geometry" />
        </mxCell>
        <mxCell id="3e-uo4Sejg_3FfOKzJGx-175" value="PK" style="text;html=1;resizable=0;autosize=1;align=center;verticalAlign=middle;points=[];fillColor=none;strokeColor=none;rounded=0;fontFamily=Times New Roman;fontSize=11;" parent="1" vertex="1">
          <mxGeometry x="336" y="1162.5" width="40" height="30" as="geometry" />
        </mxCell>
        <mxCell id="3e-uo4Sejg_3FfOKzJGx-176" value="PK" style="text;html=1;resizable=0;autosize=1;align=center;verticalAlign=middle;points=[];fillColor=none;strokeColor=none;rounded=0;fontFamily=Times New Roman;fontSize=11;" parent="1" vertex="1">
          <mxGeometry x="541" y="1165" width="40" height="30" as="geometry" />
        </mxCell>
        <mxCell id="3e-uo4Sejg_3FfOKzJGx-177" value="PK" style="text;html=1;resizable=0;autosize=1;align=center;verticalAlign=middle;points=[];fillColor=none;strokeColor=none;rounded=0;fontFamily=Times New Roman;fontSize=11;" parent="1" vertex="1">
          <mxGeometry x="851" y="1165" width="40" height="30" as="geometry" />
        </mxCell>
        <mxCell id="3e-uo4Sejg_3FfOKzJGx-178" value="&lt;span style=&quot;font-size: 14px;&quot;&gt;&lt;b&gt;ORDER&lt;/b&gt;&lt;/span&gt;" style="text;html=1;resizable=0;autosize=1;align=center;verticalAlign=middle;points=[];fillColor=none;strokeColor=none;rounded=0;fontFamily=Times New Roman;fontSize=11;" parent="1" vertex="1">
          <mxGeometry x="246" y="1137.5" width="70" height="30" as="geometry" />
        </mxCell>
        <mxCell id="3e-uo4Sejg_3FfOKzJGx-179" value="&lt;span style=&quot;font-size: 14px;&quot;&gt;&lt;b&gt;ITEM&lt;/b&gt;&lt;/span&gt;" style="text;html=1;resizable=0;autosize=1;align=center;verticalAlign=middle;points=[];fillColor=none;strokeColor=none;rounded=0;fontFamily=Times New Roman;fontSize=11;" parent="1" vertex="1">
          <mxGeometry x="366" y="1140" width="60" height="30" as="geometry" />
        </mxCell>
        <mxCell id="3e-uo4Sejg_3FfOKzJGx-180" value="&lt;b style=&quot;font-size: 14px;&quot;&gt;ORDER_ITEM&lt;/b&gt;" style="text;html=1;resizable=0;autosize=1;align=center;verticalAlign=middle;points=[];fillColor=none;strokeColor=none;rounded=0;fontFamily=Times New Roman;fontSize=11;" parent="1" vertex="1">
          <mxGeometry x="566" y="1140" width="120" height="30" as="geometry" />
        </mxCell>
        <mxCell id="id5w-fibCyRtsWTaa8x1-113" style="edgeStyle=orthogonalEdgeStyle;rounded=0;orthogonalLoop=1;jettySize=auto;html=1;exitX=0.5;exitY=0;exitDx=0;exitDy=0;entryX=0.5;entryY=0;entryDx=0;entryDy=0;startArrow=none;startFill=0;endArrow=classicThin;endFill=1;" parent="1" source="3e-uo4Sejg_3FfOKzJGx-182" target="3e-uo4Sejg_3FfOKzJGx-195" edge="1">
          <mxGeometry relative="1" as="geometry" />
        </mxCell>
        <mxCell id="3e-uo4Sejg_3FfOKzJGx-182" value="&lt;font style=&quot;font-size: 11px;&quot; face=&quot;Times New Roman&quot;&gt;&lt;u&gt;CustID&lt;/u&gt;&lt;/font&gt;" style="rounded=0;whiteSpace=wrap;html=1;" parent="1" vertex="1">
          <mxGeometry x="246" y="1278.5" width="50" height="20" as="geometry" />
        </mxCell>
        <mxCell id="3e-uo4Sejg_3FfOKzJGx-183" style="edgeStyle=orthogonalEdgeStyle;rounded=0;orthogonalLoop=1;jettySize=auto;html=1;exitX=0.5;exitY=0;exitDx=0;exitDy=0;startArrow=classicThin;startFill=1;endArrow=none;endFill=0;" parent="1" source="3e-uo4Sejg_3FfOKzJGx-185" edge="1">
          <mxGeometry relative="1" as="geometry">
            <mxPoint x="331.16666666666674" y="1258.4999999999998" as="targetPoint" />
          </mxGeometry>
        </mxCell>
        <mxCell id="id5w-fibCyRtsWTaa8x1-112" style="edgeStyle=orthogonalEdgeStyle;rounded=0;orthogonalLoop=1;jettySize=auto;html=1;exitX=0.5;exitY=1;exitDx=0;exitDy=0;startArrow=classicThin;startFill=1;endArrow=none;endFill=0;" parent="1" source="3e-uo4Sejg_3FfOKzJGx-185" edge="1">
          <mxGeometry relative="1" as="geometry">
            <mxPoint x="331" y="1321.45" as="targetPoint" />
          </mxGeometry>
        </mxCell>
        <mxCell id="3e-uo4Sejg_3FfOKzJGx-185" value="&lt;font style=&quot;font-size: 11px;&quot; face=&quot;Times New Roman&quot;&gt;Cus_Name&lt;/font&gt;" style="rounded=0;whiteSpace=wrap;html=1;" parent="1" vertex="1">
          <mxGeometry x="296" y="1278.5" width="70" height="20" as="geometry" />
        </mxCell>
        <mxCell id="3e-uo4Sejg_3FfOKzJGx-186" style="edgeStyle=orthogonalEdgeStyle;rounded=0;orthogonalLoop=1;jettySize=auto;html=1;exitX=0.5;exitY=0;exitDx=0;exitDy=0;startArrow=classicThin;startFill=1;endArrow=none;endFill=0;" parent="1" source="3e-uo4Sejg_3FfOKzJGx-189" edge="1">
          <mxGeometry relative="1" as="geometry">
            <mxPoint x="401.16666666666674" y="1258.4999999999998" as="targetPoint" />
          </mxGeometry>
        </mxCell>
        <mxCell id="3e-uo4Sejg_3FfOKzJGx-188" style="edgeStyle=orthogonalEdgeStyle;rounded=0;orthogonalLoop=1;jettySize=auto;html=1;exitX=0.5;exitY=1;exitDx=0;exitDy=0;entryX=0.5;entryY=1;entryDx=0;entryDy=0;startArrow=none;startFill=0;endArrow=classicThin;endFill=1;" parent="1" source="3e-uo4Sejg_3FfOKzJGx-189" target="3e-uo4Sejg_3FfOKzJGx-182" edge="1">
          <mxGeometry relative="1" as="geometry">
            <Array as="points">
              <mxPoint x="401" y="1321.45" />
              <mxPoint x="271" y="1321.45" />
            </Array>
          </mxGeometry>
        </mxCell>
        <mxCell id="id5w-fibCyRtsWTaa8x1-107" style="edgeStyle=orthogonalEdgeStyle;rounded=0;orthogonalLoop=1;jettySize=auto;html=1;exitX=0.5;exitY=1;exitDx=0;exitDy=0;entryX=0.5;entryY=1;entryDx=0;entryDy=0;startArrow=none;startFill=0;endArrow=classicThin;endFill=1;" parent="1" source="3e-uo4Sejg_3FfOKzJGx-189" target="3e-uo4Sejg_3FfOKzJGx-195" edge="1">
          <mxGeometry relative="1" as="geometry">
            <Array as="points">
              <mxPoint x="401" y="1321.45" />
              <mxPoint x="521" y="1321.45" />
            </Array>
          </mxGeometry>
        </mxCell>
        <mxCell id="3e-uo4Sejg_3FfOKzJGx-189" value="&lt;font style=&quot;font-size: 11px;&quot; face=&quot;Times New Roman&quot;&gt;Cus_Email&lt;/font&gt;" style="rounded=0;whiteSpace=wrap;html=1;" parent="1" vertex="1">
          <mxGeometry x="366" y="1278.5" width="70" height="20" as="geometry" />
        </mxCell>
        <mxCell id="3e-uo4Sejg_3FfOKzJGx-190" style="edgeStyle=orthogonalEdgeStyle;rounded=0;orthogonalLoop=1;jettySize=auto;html=1;exitX=0.5;exitY=0;exitDx=0;exitDy=0;startArrow=classicThin;startFill=1;endArrow=none;endFill=0;" parent="1" source="3e-uo4Sejg_3FfOKzJGx-192" edge="1">
          <mxGeometry relative="1" as="geometry">
            <mxPoint x="461.16666666666674" y="1258.4999999999998" as="targetPoint" />
          </mxGeometry>
        </mxCell>
        <mxCell id="id5w-fibCyRtsWTaa8x1-108" style="edgeStyle=orthogonalEdgeStyle;rounded=0;orthogonalLoop=1;jettySize=auto;html=1;exitX=0.5;exitY=1;exitDx=0;exitDy=0;startArrow=classicThin;startFill=1;endArrow=none;endFill=0;" parent="1" source="3e-uo4Sejg_3FfOKzJGx-192" edge="1">
          <mxGeometry relative="1" as="geometry">
            <mxPoint x="461.20000000000005" y="1321.45" as="targetPoint" />
          </mxGeometry>
        </mxCell>
        <mxCell id="3e-uo4Sejg_3FfOKzJGx-192" value="&lt;font style=&quot;font-size: 11px;&quot; face=&quot;Times New Roman&quot;&gt;Balance&lt;/font&gt;&lt;span style=&quot;color: rgba(0, 0, 0, 0); font-family: monospace; font-size: 0px; text-align: start;&quot;&gt;%3CmxGraphModel%3E%3Croot%3E%3CmxCell%20id%3D%220%22%2F%3E%3CmxCell%20id%3D%221%22%20parent%3D%220%22%2F%3E%3CmxCell%20id%3D%222%22%20value%3D%22%26lt%3Bfont%20style%3D%26quot%3Bfont-size%3A%2011px%3B%26quot%3B%20face%3D%26quot%3BTimes%20New%20Roman%26quot%3B%26gt%3BOrder%23%26lt%3B%2Ffont%26gt%3B%22%20style%3D%22rounded%3D0%3BwhiteSpace%3Dwrap%3Bhtml%3D1%3B%22%20vertex%3D%221%22%20parent%3D%221%22%3E%3CmxGeometry%20x%3D%2270%22%20y%3D%22210%22%20width%3D%2250%22%20height%3D%2220%22%20as%3D%22geometry%22%2F%3E%3C%2FmxCell%3E%3C%2Froot%3E%3C%2FmxGraphModel%3E&lt;/span&gt;" style="rounded=0;whiteSpace=wrap;html=1;" parent="1" vertex="1">
          <mxGeometry x="436" y="1278.5" width="50" height="20" as="geometry" />
        </mxCell>
        <mxCell id="3e-uo4Sejg_3FfOKzJGx-195" value="&lt;font style=&quot;font-size: 11px;&quot; face=&quot;Times New Roman&quot;&gt;Credit_Limit&lt;/font&gt;" style="rounded=0;whiteSpace=wrap;html=1;" parent="1" vertex="1">
          <mxGeometry x="486" y="1278.5" width="70" height="20" as="geometry" />
        </mxCell>
        <mxCell id="3e-uo4Sejg_3FfOKzJGx-198" value="&lt;font style=&quot;font-size: 11px;&quot; face=&quot;Times New Roman&quot;&gt;RepID&lt;/font&gt;" style="rounded=0;whiteSpace=wrap;html=1;" parent="1" vertex="1">
          <mxGeometry x="636" y="1278.5" width="50" height="20" as="geometry" />
        </mxCell>
        <mxCell id="3e-uo4Sejg_3FfOKzJGx-212" style="edgeStyle=orthogonalEdgeStyle;rounded=0;orthogonalLoop=1;jettySize=auto;html=1;exitX=0.5;exitY=0;exitDx=0;exitDy=0;startArrow=classicThin;startFill=1;endArrow=none;endFill=0;" parent="1" source="3e-uo4Sejg_3FfOKzJGx-201" edge="1">
          <mxGeometry relative="1" as="geometry">
            <mxPoint x="800.9047619047618" y="1261.45" as="targetPoint" />
          </mxGeometry>
        </mxCell>
        <mxCell id="3e-uo4Sejg_3FfOKzJGx-201" value="&lt;font style=&quot;font-size: 11px;&quot; face=&quot;Times New Roman&quot;&gt;FName&lt;/font&gt;" style="rounded=0;whiteSpace=wrap;html=1;" parent="1" vertex="1">
          <mxGeometry x="776" y="1278.5" width="50" height="20" as="geometry" />
        </mxCell>
        <mxCell id="3e-uo4Sejg_3FfOKzJGx-202" value="&lt;font style=&quot;font-size: 11px;&quot; face=&quot;Times New Roman&quot;&gt;LName&lt;/font&gt;" style="rounded=0;whiteSpace=wrap;html=1;" parent="1" vertex="1">
          <mxGeometry x="826" y="1278.5" width="50" height="20" as="geometry" />
        </mxCell>
        <mxCell id="3e-uo4Sejg_3FfOKzJGx-203" value="PK" style="text;html=1;resizable=0;autosize=1;align=center;verticalAlign=middle;points=[];fillColor=none;strokeColor=none;rounded=0;fontFamily=Times New Roman;fontSize=11;" parent="1" vertex="1">
          <mxGeometry x="526" y="1248.5" width="40" height="30" as="geometry" />
        </mxCell>
        <mxCell id="3e-uo4Sejg_3FfOKzJGx-204" value="&lt;span style=&quot;font-size: 14px;&quot;&gt;&lt;b&gt;CUST&lt;/b&gt;&lt;/span&gt;" style="text;html=1;resizable=0;autosize=1;align=center;verticalAlign=middle;points=[];fillColor=none;strokeColor=none;rounded=0;fontFamily=Times New Roman;fontSize=11;" parent="1" vertex="1">
          <mxGeometry x="241" y="1231.45" width="60" height="30" as="geometry" />
        </mxCell>
        <mxCell id="3e-uo4Sejg_3FfOKzJGx-213" style="edgeStyle=orthogonalEdgeStyle;rounded=0;orthogonalLoop=1;jettySize=auto;html=1;exitX=0.5;exitY=0;exitDx=0;exitDy=0;entryX=0.5;entryY=0;entryDx=0;entryDy=0;startArrow=none;startFill=0;endArrow=classicThin;endFill=1;" parent="1" source="3e-uo4Sejg_3FfOKzJGx-208" target="3e-uo4Sejg_3FfOKzJGx-202" edge="1">
          <mxGeometry relative="1" as="geometry">
            <Array as="points">
              <mxPoint x="751" y="1261.45" />
              <mxPoint x="851" y="1261.45" />
            </Array>
          </mxGeometry>
        </mxCell>
        <mxCell id="3e-uo4Sejg_3FfOKzJGx-208" value="&lt;font style=&quot;font-size: 11px;&quot; face=&quot;Times New Roman&quot;&gt;&lt;u&gt;RepID&lt;/u&gt;&lt;/font&gt;" style="rounded=0;whiteSpace=wrap;html=1;" parent="1" vertex="1">
          <mxGeometry x="726" y="1278.5" width="50" height="20" as="geometry" />
        </mxCell>
        <mxCell id="3e-uo4Sejg_3FfOKzJGx-209" value="PK" style="text;html=1;resizable=0;autosize=1;align=center;verticalAlign=middle;points=[];fillColor=none;strokeColor=none;rounded=0;fontFamily=Times New Roman;fontSize=11;" parent="1" vertex="1">
          <mxGeometry x="861" y="1248.5" width="40" height="30" as="geometry" />
        </mxCell>
        <mxCell id="3e-uo4Sejg_3FfOKzJGx-214" value="&lt;span style=&quot;font-size: 14px;&quot;&gt;&lt;b&gt;REP&lt;/b&gt;&lt;/span&gt;" style="text;html=1;resizable=0;autosize=1;align=center;verticalAlign=middle;points=[];fillColor=none;strokeColor=none;rounded=0;fontFamily=Times New Roman;fontSize=11;" parent="1" vertex="1">
          <mxGeometry x="711" y="1231.45" width="50" height="30" as="geometry" />
        </mxCell>
        <mxCell id="3e-uo4Sejg_3FfOKzJGx-228" style="edgeStyle=orthogonalEdgeStyle;rounded=0;orthogonalLoop=1;jettySize=auto;html=1;fontSize=12;startArrow=none;startFill=0;endArrow=classicThin;endFill=1;entryX=0.514;entryY=-0.003;entryDx=0;entryDy=0;entryPerimeter=0;" parent="1" source="3e-uo4Sejg_3FfOKzJGx-215" edge="1">
          <mxGeometry relative="1" as="geometry">
            <mxPoint x="77.98000000000002" y="2089.91" as="targetPoint" />
            <Array as="points">
              <mxPoint x="222" y="1990" />
              <mxPoint x="77" y="1990" />
              <mxPoint x="77" y="2090" />
            </Array>
          </mxGeometry>
        </mxCell>
        <mxCell id="3e-uo4Sejg_3FfOKzJGx-230" style="edgeStyle=orthogonalEdgeStyle;rounded=0;orthogonalLoop=1;jettySize=auto;html=1;entryX=0.47;entryY=-0.037;entryDx=0;entryDy=0;entryPerimeter=0;fontSize=12;startArrow=none;startFill=0;endArrow=classicThin;endFill=1;" parent="1" source="3e-uo4Sejg_3FfOKzJGx-215" target="3e-uo4Sejg_3FfOKzJGx-222" edge="1">
          <mxGeometry relative="1" as="geometry">
            <Array as="points">
              <mxPoint x="222" y="1990" />
              <mxPoint x="135" y="1990" />
            </Array>
          </mxGeometry>
        </mxCell>
        <mxCell id="3e-uo4Sejg_3FfOKzJGx-231" style="edgeStyle=orthogonalEdgeStyle;rounded=0;orthogonalLoop=1;jettySize=auto;html=1;fontSize=12;startArrow=none;startFill=0;endArrow=classicThin;endFill=1;" parent="1" source="3e-uo4Sejg_3FfOKzJGx-215" target="3e-uo4Sejg_3FfOKzJGx-220" edge="1">
          <mxGeometry relative="1" as="geometry">
            <Array as="points">
              <mxPoint x="222" y="1990" />
              <mxPoint x="352" y="1990" />
            </Array>
          </mxGeometry>
        </mxCell>
        <mxCell id="3e-uo4Sejg_3FfOKzJGx-215" value="&lt;b&gt;&lt;font style=&quot;font-size: 12px;&quot;&gt;CUST_REP_ORDER_ITEM&lt;/font&gt;&lt;/b&gt;" style="text;html=1;resizable=0;autosize=1;align=center;verticalAlign=middle;points=[];fillColor=none;strokeColor=none;rounded=0;fontFamily=Times New Roman;fontSize=11;" parent="1" vertex="1">
          <mxGeometry x="137" y="1930" width="170" height="30" as="geometry" />
        </mxCell>
        <mxCell id="3e-uo4Sejg_3FfOKzJGx-217" value="&lt;span style=&quot;font-size: 14px;&quot;&gt;&lt;b&gt;ORDER&lt;/b&gt;&lt;/span&gt;" style="text;html=1;resizable=0;autosize=1;align=center;verticalAlign=middle;points=[];fillColor=none;strokeColor=none;rounded=0;fontFamily=Times New Roman;fontSize=11;" parent="1" vertex="1">
          <mxGeometry x="225" y="320" width="70" height="30" as="geometry" />
        </mxCell>
        <mxCell id="3e-uo4Sejg_3FfOKzJGx-218" value="&lt;span style=&quot;font-size: 14px;&quot;&gt;&lt;b&gt;ITEM&lt;/b&gt;&lt;/span&gt;" style="text;html=1;resizable=0;autosize=1;align=center;verticalAlign=middle;points=[];fillColor=none;strokeColor=none;rounded=0;fontFamily=Times New Roman;fontSize=11;" parent="1" vertex="1">
          <mxGeometry x="390" y="320" width="60" height="30" as="geometry" />
        </mxCell>
        <mxCell id="3e-uo4Sejg_3FfOKzJGx-233" style="edgeStyle=orthogonalEdgeStyle;rounded=0;orthogonalLoop=1;jettySize=auto;html=1;fontSize=12;startArrow=none;startFill=0;endArrow=classicThin;endFill=1;" parent="1" source="3e-uo4Sejg_3FfOKzJGx-220" target="3e-uo4Sejg_3FfOKzJGx-224" edge="1">
          <mxGeometry relative="1" as="geometry">
            <Array as="points">
              <mxPoint x="352" y="2070" />
              <mxPoint x="277" y="2070" />
            </Array>
          </mxGeometry>
        </mxCell>
        <mxCell id="3e-uo4Sejg_3FfOKzJGx-234" style="edgeStyle=orthogonalEdgeStyle;rounded=0;orthogonalLoop=1;jettySize=auto;html=1;fontSize=12;startArrow=none;startFill=0;endArrow=classicThin;endFill=1;" parent="1" source="3e-uo4Sejg_3FfOKzJGx-220" target="3e-uo4Sejg_3FfOKzJGx-225" edge="1">
          <mxGeometry relative="1" as="geometry">
            <Array as="points">
              <mxPoint x="352" y="2070" />
              <mxPoint x="441" y="2070" />
            </Array>
          </mxGeometry>
        </mxCell>
        <mxCell id="id5w-fibCyRtsWTaa8x1-119" style="edgeStyle=orthogonalEdgeStyle;rounded=0;orthogonalLoop=1;jettySize=auto;html=1;entryX=0.494;entryY=-0.069;entryDx=0;entryDy=0;entryPerimeter=0;fontSize=12;startArrow=none;startFill=0;endArrow=classicThin;endFill=1;" parent="1" source="3e-uo4Sejg_3FfOKzJGx-220" target="id5w-fibCyRtsWTaa8x1-118" edge="1">
          <mxGeometry relative="1" as="geometry">
            <Array as="points">
              <mxPoint x="352" y="2070" />
              <mxPoint x="348" y="2070" />
            </Array>
          </mxGeometry>
        </mxCell>
        <mxCell id="id5w-fibCyRtsWTaa8x1-124" style="edgeStyle=orthogonalEdgeStyle;rounded=0;orthogonalLoop=1;jettySize=auto;html=1;entryX=0.5;entryY=0;entryDx=0;entryDy=0;entryPerimeter=0;fontSize=12;startArrow=none;startFill=0;endArrow=classicThin;endFill=1;" parent="1" source="3e-uo4Sejg_3FfOKzJGx-220" target="3e-uo4Sejg_3FfOKzJGx-223" edge="1">
          <mxGeometry relative="1" as="geometry">
            <Array as="points">
              <mxPoint x="352" y="2070" />
              <mxPoint x="207" y="2070" />
            </Array>
          </mxGeometry>
        </mxCell>
        <mxCell id="3e-uo4Sejg_3FfOKzJGx-220" value="&lt;b style=&quot;&quot;&gt;&lt;font style=&quot;font-size: 12px;&quot;&gt;ORDER_CUST_REP&lt;/font&gt;&lt;/b&gt;" style="text;html=1;resizable=0;autosize=1;align=center;verticalAlign=middle;points=[];fillColor=none;strokeColor=none;rounded=0;fontFamily=Times New Roman;fontSize=11;" parent="1" vertex="1">
          <mxGeometry x="287" y="2010" width="130" height="30" as="geometry" />
        </mxCell>
        <mxCell id="3e-uo4Sejg_3FfOKzJGx-221" value="&lt;b style=&quot;&quot;&gt;&lt;font style=&quot;font-size: 12px;&quot;&gt;ORDER&lt;/font&gt;&lt;/b&gt;" style="text;html=1;resizable=0;autosize=1;align=center;verticalAlign=middle;points=[];fillColor=none;strokeColor=none;rounded=0;fontFamily=Times New Roman;fontSize=11;" parent="1" vertex="1">
          <mxGeometry x="46" y="2090" width="70" height="30" as="geometry" />
        </mxCell>
        <mxCell id="3e-uo4Sejg_3FfOKzJGx-222" value="&lt;b style=&quot;&quot;&gt;&lt;font style=&quot;font-size: 12px;&quot;&gt;ITEM&lt;/font&gt;&lt;/b&gt;" style="text;html=1;resizable=0;autosize=1;align=center;verticalAlign=middle;points=[];fillColor=none;strokeColor=none;rounded=0;fontFamily=Times New Roman;fontSize=11;" parent="1" vertex="1">
          <mxGeometry x="107" y="2090" width="60" height="30" as="geometry" />
        </mxCell>
        <mxCell id="3e-uo4Sejg_3FfOKzJGx-223" value="&lt;b style=&quot;&quot;&gt;&lt;font style=&quot;font-size: 12px;&quot;&gt;ORDER_ITEM&lt;/font&gt;&lt;/b&gt;" style="text;html=1;resizable=0;autosize=1;align=center;verticalAlign=middle;points=[];fillColor=none;strokeColor=none;rounded=0;fontFamily=Times New Roman;fontSize=11;" parent="1" vertex="1">
          <mxGeometry x="157" y="2090" width="100" height="30" as="geometry" />
        </mxCell>
        <mxCell id="3e-uo4Sejg_3FfOKzJGx-224" value="&lt;b style=&quot;&quot;&gt;&lt;font style=&quot;font-size: 12px;&quot;&gt;CUST&lt;/font&gt;&lt;/b&gt;" style="text;html=1;resizable=0;autosize=1;align=center;verticalAlign=middle;points=[];fillColor=none;strokeColor=none;rounded=0;fontFamily=Times New Roman;fontSize=11;" parent="1" vertex="1">
          <mxGeometry x="247" y="2090" width="60" height="30" as="geometry" />
        </mxCell>
        <mxCell id="3e-uo4Sejg_3FfOKzJGx-225" value="&lt;b style=&quot;&quot;&gt;&lt;font style=&quot;font-size: 12px;&quot;&gt;REP&lt;/font&gt;&lt;/b&gt;" style="text;html=1;resizable=0;autosize=1;align=center;verticalAlign=middle;points=[];fillColor=none;strokeColor=none;rounded=0;fontFamily=Times New Roman;fontSize=11;" parent="1" vertex="1">
          <mxGeometry x="416" y="2090" width="50" height="30" as="geometry" />
        </mxCell>
        <mxCell id="3e-uo4Sejg_3FfOKzJGx-235" value="&lt;b style=&quot;&quot;&gt;&lt;font style=&quot;font-size: 14px;&quot;&gt;1NF&lt;/font&gt;&lt;/b&gt;" style="text;html=1;resizable=0;autosize=1;align=center;verticalAlign=middle;points=[];fillColor=none;strokeColor=none;rounded=0;fontFamily=Times New Roman;fontSize=11;" parent="1" vertex="1">
          <mxGeometry x="407" y="1949" width="50" height="30" as="geometry" />
        </mxCell>
        <mxCell id="3e-uo4Sejg_3FfOKzJGx-236" value="&lt;b style=&quot;&quot;&gt;&lt;font style=&quot;font-size: 14px;&quot;&gt;2NF&lt;/font&gt;&lt;/b&gt;" style="text;html=1;resizable=0;autosize=1;align=center;verticalAlign=middle;points=[];fillColor=none;strokeColor=none;rounded=0;fontFamily=Times New Roman;fontSize=11;" parent="1" vertex="1">
          <mxGeometry x="407" y="2010" width="50" height="30" as="geometry" />
        </mxCell>
        <mxCell id="3e-uo4Sejg_3FfOKzJGx-237" value="&lt;b style=&quot;&quot;&gt;&lt;font style=&quot;font-size: 14px;&quot;&gt;3NF/BCNF&lt;/font&gt;&lt;/b&gt;" style="text;html=1;resizable=0;autosize=1;align=center;verticalAlign=middle;points=[];fillColor=none;strokeColor=none;rounded=0;fontFamily=Times New Roman;fontSize=11;" parent="1" vertex="1">
          <mxGeometry x="451" y="2064" width="90" height="30" as="geometry" />
        </mxCell>
        <mxCell id="3e-uo4Sejg_3FfOKzJGx-257" style="edgeStyle=orthogonalEdgeStyle;rounded=0;orthogonalLoop=1;jettySize=auto;html=1;exitX=0.5;exitY=1;exitDx=0;exitDy=0;entryX=0.5;entryY=0;entryDx=0;entryDy=0;fontFamily=Times New Roman;fontSize=12;startArrow=none;startFill=0;endArrow=none;endFill=0;" parent="1" source="3e-uo4Sejg_3FfOKzJGx-238" target="3e-uo4Sejg_3FfOKzJGx-249" edge="1">
          <mxGeometry relative="1" as="geometry" />
        </mxCell>
        <mxCell id="3e-uo4Sejg_3FfOKzJGx-238" value="&lt;font face=&quot;Times New Roman&quot;&gt;CUST&lt;/font&gt;" style="whiteSpace=wrap;html=1;align=center;fontSize=14;" parent="1" vertex="1">
          <mxGeometry x="770.99" y="2125" width="70" height="26" as="geometry" />
        </mxCell>
        <mxCell id="3e-uo4Sejg_3FfOKzJGx-239" value="&lt;font face=&quot;Times New Roman&quot;&gt;ITEM&lt;/font&gt;" style="whiteSpace=wrap;html=1;align=center;fontSize=14;" parent="1" vertex="1">
          <mxGeometry x="500" y="2261" width="70" height="26" as="geometry" />
        </mxCell>
        <mxCell id="3e-uo4Sejg_3FfOKzJGx-259" style="edgeStyle=orthogonalEdgeStyle;rounded=0;orthogonalLoop=1;jettySize=auto;html=1;exitX=0;exitY=0.5;exitDx=0;exitDy=0;entryX=1;entryY=0.5;entryDx=0;entryDy=0;fontFamily=Times New Roman;fontSize=12;startArrow=none;startFill=0;endArrow=none;endFill=0;" parent="1" source="3e-uo4Sejg_3FfOKzJGx-240" target="3e-uo4Sejg_3FfOKzJGx-252" edge="1">
          <mxGeometry relative="1" as="geometry" />
        </mxCell>
        <mxCell id="id5w-fibCyRtsWTaa8x1-129" style="edgeStyle=orthogonalEdgeStyle;rounded=0;orthogonalLoop=1;jettySize=auto;html=1;exitX=1;exitY=0.5;exitDx=0;exitDy=0;entryX=0;entryY=0.5;entryDx=0;entryDy=0;fontSize=12;startArrow=none;startFill=0;endArrow=none;endFill=0;" parent="1" source="3e-uo4Sejg_3FfOKzJGx-240" target="id5w-fibCyRtsWTaa8x1-128" edge="1">
          <mxGeometry relative="1" as="geometry" />
        </mxCell>
        <mxCell id="3e-uo4Sejg_3FfOKzJGx-240" value="&lt;span style=&quot;font-family: &amp;quot;Times New Roman&amp;quot;; font-size: 11px;&quot;&gt;&lt;font style=&quot;font-size: 12px;&quot;&gt;ORDER_ITEM&lt;/font&gt;&lt;/span&gt;" style="whiteSpace=wrap;html=1;align=center;fontSize=14;" parent="1" vertex="1">
          <mxGeometry x="733.61" y="2259" width="140" height="27" as="geometry" />
        </mxCell>
        <mxCell id="3e-uo4Sejg_3FfOKzJGx-255" style="edgeStyle=orthogonalEdgeStyle;rounded=0;orthogonalLoop=1;jettySize=auto;html=1;exitX=0.5;exitY=1;exitDx=0;exitDy=0;entryX=0.5;entryY=0;entryDx=0;entryDy=0;fontFamily=Times New Roman;fontSize=12;startArrow=none;startFill=0;endArrow=none;endFill=0;" parent="1" source="3e-uo4Sejg_3FfOKzJGx-241" target="3e-uo4Sejg_3FfOKzJGx-250" edge="1">
          <mxGeometry relative="1" as="geometry" />
        </mxCell>
        <mxCell id="3e-uo4Sejg_3FfOKzJGx-241" value="&lt;font face=&quot;Times New Roman&quot;&gt;&lt;span style=&quot;font-size: 14px;&quot;&gt;CUST_SUPPORT&lt;/span&gt;&lt;/font&gt;" style="whiteSpace=wrap;html=1;align=center;fontSize=14;" parent="1" vertex="1">
          <mxGeometry x="746.42" y="1974" width="114.58" height="36" as="geometry" />
        </mxCell>
        <mxCell id="3e-uo4Sejg_3FfOKzJGx-253" style="edgeStyle=orthogonalEdgeStyle;rounded=0;orthogonalLoop=1;jettySize=auto;html=1;exitX=0.5;exitY=1;exitDx=0;exitDy=0;entryX=0.5;entryY=0;entryDx=0;entryDy=0;fontFamily=Times New Roman;fontSize=12;startArrow=none;startFill=0;endArrow=none;endFill=0;" parent="1" source="3e-uo4Sejg_3FfOKzJGx-242" target="3e-uo4Sejg_3FfOKzJGx-251" edge="1">
          <mxGeometry relative="1" as="geometry" />
        </mxCell>
        <mxCell id="3e-uo4Sejg_3FfOKzJGx-242" value="&lt;font face=&quot;Times New Roman&quot;&gt;REP&lt;/font&gt;" style="whiteSpace=wrap;html=1;align=center;fontSize=14;" parent="1" vertex="1">
          <mxGeometry x="771" y="1847" width="70" height="26" as="geometry" />
        </mxCell>
        <mxCell id="3e-uo4Sejg_3FfOKzJGx-258" style="edgeStyle=orthogonalEdgeStyle;rounded=0;orthogonalLoop=1;jettySize=auto;html=1;exitX=0.5;exitY=1;exitDx=0;exitDy=0;entryX=0.5;entryY=0;entryDx=0;entryDy=0;fontFamily=Times New Roman;fontSize=12;startArrow=none;startFill=0;endArrow=none;endFill=0;" parent="1" source="3e-uo4Sejg_3FfOKzJGx-249" target="3e-uo4Sejg_3FfOKzJGx-240" edge="1">
          <mxGeometry relative="1" as="geometry" />
        </mxCell>
        <mxCell id="3e-uo4Sejg_3FfOKzJGx-249" value="sets" style="shape=rhombus;perimeter=rhombusPerimeter;whiteSpace=wrap;html=1;align=center;fontFamily=Times New Roman;fontSize=14;" parent="1" vertex="1">
          <mxGeometry x="764.21" y="2180" width="79.01" height="35" as="geometry" />
        </mxCell>
        <mxCell id="3e-uo4Sejg_3FfOKzJGx-256" style="edgeStyle=orthogonalEdgeStyle;rounded=0;orthogonalLoop=1;jettySize=auto;html=1;exitX=0.5;exitY=1;exitDx=0;exitDy=0;entryX=0.5;entryY=0;entryDx=0;entryDy=0;fontFamily=Times New Roman;fontSize=12;startArrow=none;startFill=0;endArrow=none;endFill=0;" parent="1" source="3e-uo4Sejg_3FfOKzJGx-250" target="3e-uo4Sejg_3FfOKzJGx-238" edge="1">
          <mxGeometry relative="1" as="geometry" />
        </mxCell>
        <mxCell id="3e-uo4Sejg_3FfOKzJGx-250" value="refers to" style="shape=rhombus;perimeter=rhombusPerimeter;whiteSpace=wrap;html=1;align=center;fontFamily=Times New Roman;fontSize=14;" parent="1" vertex="1">
          <mxGeometry x="761.99" y="2049.5" width="89.01" height="36" as="geometry" />
        </mxCell>
        <mxCell id="3e-uo4Sejg_3FfOKzJGx-254" style="edgeStyle=orthogonalEdgeStyle;rounded=0;orthogonalLoop=1;jettySize=auto;html=1;exitX=0.5;exitY=1;exitDx=0;exitDy=0;entryX=0.5;entryY=0;entryDx=0;entryDy=0;fontFamily=Times New Roman;fontSize=12;startArrow=none;startFill=0;endArrow=none;endFill=0;" parent="1" source="3e-uo4Sejg_3FfOKzJGx-251" target="3e-uo4Sejg_3FfOKzJGx-241" edge="1">
          <mxGeometry relative="1" as="geometry" />
        </mxCell>
        <mxCell id="3e-uo4Sejg_3FfOKzJGx-251" value="works on" style="shape=rhombus;perimeter=rhombusPerimeter;whiteSpace=wrap;html=1;align=center;fontFamily=Times New Roman;fontSize=14;" parent="1" vertex="1">
          <mxGeometry x="759.21" y="1900" width="89" height="37" as="geometry" />
        </mxCell>
        <mxCell id="3e-uo4Sejg_3FfOKzJGx-260" style="edgeStyle=orthogonalEdgeStyle;rounded=0;orthogonalLoop=1;jettySize=auto;html=1;exitX=0;exitY=0.5;exitDx=0;exitDy=0;fontFamily=Times New Roman;fontSize=12;startArrow=none;startFill=0;endArrow=none;endFill=0;" parent="1" source="3e-uo4Sejg_3FfOKzJGx-252" edge="1">
          <mxGeometry relative="1" as="geometry">
            <mxPoint x="570.9999999999998" y="2272.310344827586" as="targetPoint" />
          </mxGeometry>
        </mxCell>
        <mxCell id="3e-uo4Sejg_3FfOKzJGx-252" value="checks" style="shape=rhombus;perimeter=rhombusPerimeter;whiteSpace=wrap;html=1;align=center;fontFamily=Times New Roman;fontSize=14;" parent="1" vertex="1">
          <mxGeometry x="618.88" y="2254" width="74.25" height="37" as="geometry" />
        </mxCell>
        <mxCell id="3e-uo4Sejg_3FfOKzJGx-261" value="&lt;b style=&quot;&quot;&gt;&lt;u style=&quot;&quot;&gt;&lt;font style=&quot;font-size: 24px;&quot;&gt;ER Diagram&lt;/font&gt;&lt;/u&gt;&lt;/b&gt;" style="text;html=1;resizable=0;autosize=1;align=center;verticalAlign=middle;points=[];fillColor=none;strokeColor=none;rounded=0;fontFamily=Times New Roman;fontSize=11;" parent="1" vertex="1">
          <mxGeometry x="585" y="1760" width="150" height="40" as="geometry" />
        </mxCell>
        <mxCell id="3e-uo4Sejg_3FfOKzJGx-262" value="&lt;b style=&quot;&quot;&gt;&lt;u style=&quot;&quot;&gt;&lt;font style=&quot;font-size: 24px;&quot;&gt;Decomposition Diagram&lt;/font&gt;&lt;/u&gt;&lt;/b&gt;" style="text;html=1;resizable=0;autosize=1;align=center;verticalAlign=middle;points=[];fillColor=none;strokeColor=none;rounded=0;fontFamily=Times New Roman;fontSize=11;" parent="1" vertex="1">
          <mxGeometry x="20" y="1760" width="270" height="40" as="geometry" />
        </mxCell>
        <mxCell id="id5w-fibCyRtsWTaa8x1-3" value="Transitive Dependency" style="text;html=1;resizable=0;autosize=1;align=center;verticalAlign=middle;points=[];fillColor=none;strokeColor=none;rounded=0;fontFamily=Times New Roman;fontSize=11;" parent="1" vertex="1">
          <mxGeometry x="286" y="-324" width="130" height="30" as="geometry" />
        </mxCell>
        <mxCell id="id5w-fibCyRtsWTaa8x1-4" value="Transitive Dependency" style="text;html=1;resizable=0;autosize=1;align=center;verticalAlign=middle;points=[];fillColor=none;strokeColor=none;rounded=0;fontFamily=Times New Roman;fontSize=11;" parent="1" vertex="1">
          <mxGeometry x="286" y="-281" width="130" height="30" as="geometry" />
        </mxCell>
        <mxCell id="id5w-fibCyRtsWTaa8x1-91" style="edgeStyle=orthogonalEdgeStyle;rounded=0;orthogonalLoop=1;jettySize=auto;html=1;exitX=0.5;exitY=0;exitDx=0;exitDy=0;entryX=0.5;entryY=0;entryDx=0;entryDy=0;startArrow=none;startFill=0;endArrow=classicThin;endFill=1;" parent="1" source="id5w-fibCyRtsWTaa8x1-37" target="id5w-fibCyRtsWTaa8x1-76" edge="1">
          <mxGeometry relative="1" as="geometry">
            <Array as="points">
              <mxPoint x="250" y="436" />
              <mxPoint x="905" y="436" />
            </Array>
          </mxGeometry>
        </mxCell>
        <mxCell id="id5w-fibCyRtsWTaa8x1-37" value="&lt;font style=&quot;font-size: 11px;&quot; face=&quot;Times New Roman&quot;&gt;&lt;u&gt;Order#&lt;/u&gt;&lt;/font&gt;" style="rounded=0;whiteSpace=wrap;html=1;" parent="1" vertex="1">
          <mxGeometry x="225" y="460" width="50" height="20" as="geometry" />
        </mxCell>
        <mxCell id="id5w-fibCyRtsWTaa8x1-40" style="edgeStyle=orthogonalEdgeStyle;rounded=0;orthogonalLoop=1;jettySize=auto;html=1;exitX=0.5;exitY=0;exitDx=0;exitDy=0;fontFamily=Times New Roman;fontSize=11;startArrow=classicThin;startFill=1;endArrow=none;endFill=0;" parent="1" source="id5w-fibCyRtsWTaa8x1-42" edge="1">
          <mxGeometry relative="1" as="geometry">
            <mxPoint x="300.1724137931035" y="435" as="targetPoint" />
          </mxGeometry>
        </mxCell>
        <mxCell id="id5w-fibCyRtsWTaa8x1-41" style="edgeStyle=orthogonalEdgeStyle;rounded=0;orthogonalLoop=1;jettySize=auto;html=1;exitX=0.5;exitY=1;exitDx=0;exitDy=0;entryX=0.5;entryY=1;entryDx=0;entryDy=0;fontFamily=Times New Roman;fontSize=11;startArrow=none;startFill=0;endArrow=classicThin;endFill=1;" parent="1" source="id5w-fibCyRtsWTaa8x1-42" target="id5w-fibCyRtsWTaa8x1-62" edge="1">
          <mxGeometry relative="1" as="geometry">
            <Array as="points">
              <mxPoint x="300" y="505" />
              <mxPoint x="710" y="505" />
            </Array>
          </mxGeometry>
        </mxCell>
        <mxCell id="id5w-fibCyRtsWTaa8x1-42" value="&lt;font style=&quot;font-size: 11px;&quot; face=&quot;Times New Roman&quot;&gt;CustID&lt;/font&gt;" style="rounded=0;whiteSpace=wrap;html=1;" parent="1" vertex="1">
          <mxGeometry x="275" y="460" width="50" height="20" as="geometry" />
        </mxCell>
        <mxCell id="id5w-fibCyRtsWTaa8x1-43" style="edgeStyle=orthogonalEdgeStyle;rounded=0;orthogonalLoop=1;jettySize=auto;html=1;exitX=0.5;exitY=0;exitDx=0;exitDy=0;fontFamily=Times New Roman;fontSize=11;startArrow=classicThin;startFill=1;endArrow=none;endFill=0;" parent="1" source="id5w-fibCyRtsWTaa8x1-45" edge="1">
          <mxGeometry relative="1" as="geometry">
            <mxPoint x="360.1724137931035" y="435" as="targetPoint" />
          </mxGeometry>
        </mxCell>
        <mxCell id="id5w-fibCyRtsWTaa8x1-44" style="edgeStyle=orthogonalEdgeStyle;rounded=0;orthogonalLoop=1;jettySize=auto;html=1;exitX=0.5;exitY=1;exitDx=0;exitDy=0;fontFamily=Times New Roman;fontSize=11;startArrow=classicThin;startFill=1;endArrow=none;endFill=0;" parent="1" source="id5w-fibCyRtsWTaa8x1-45" edge="1">
          <mxGeometry relative="1" as="geometry">
            <mxPoint x="359.8571428571429" y="505" as="targetPoint" />
            <Array as="points">
              <mxPoint x="360" y="485" />
              <mxPoint x="360" y="485" />
            </Array>
          </mxGeometry>
        </mxCell>
        <mxCell id="id5w-fibCyRtsWTaa8x1-45" value="&lt;font style=&quot;font-size: 11px;&quot; face=&quot;Times New Roman&quot;&gt;Cus_Name&lt;/font&gt;" style="rounded=0;whiteSpace=wrap;html=1;" parent="1" vertex="1">
          <mxGeometry x="325" y="460" width="70" height="20" as="geometry" />
        </mxCell>
        <mxCell id="id5w-fibCyRtsWTaa8x1-46" style="edgeStyle=orthogonalEdgeStyle;rounded=0;orthogonalLoop=1;jettySize=auto;html=1;exitX=0.5;exitY=0;exitDx=0;exitDy=0;fontFamily=Times New Roman;fontSize=11;startArrow=classicThin;startFill=1;endArrow=none;endFill=0;" parent="1" source="id5w-fibCyRtsWTaa8x1-48" edge="1">
          <mxGeometry relative="1" as="geometry">
            <mxPoint x="430" y="435" as="targetPoint" />
          </mxGeometry>
        </mxCell>
        <mxCell id="id5w-fibCyRtsWTaa8x1-47" style="edgeStyle=orthogonalEdgeStyle;rounded=0;orthogonalLoop=1;jettySize=auto;html=1;exitX=0.5;exitY=1;exitDx=0;exitDy=0;fontFamily=Times New Roman;fontSize=11;startArrow=classicThin;startFill=1;endArrow=none;endFill=0;" parent="1" source="id5w-fibCyRtsWTaa8x1-48" edge="1">
          <mxGeometry relative="1" as="geometry">
            <mxPoint x="429.82758620689674" y="505" as="targetPoint" />
          </mxGeometry>
        </mxCell>
        <mxCell id="id5w-fibCyRtsWTaa8x1-48" value="&lt;font style=&quot;font-size: 11px;&quot; face=&quot;Times New Roman&quot;&gt;Cus_Email&lt;/font&gt;" style="rounded=0;whiteSpace=wrap;html=1;" parent="1" vertex="1">
          <mxGeometry x="395" y="460" width="70" height="20" as="geometry" />
        </mxCell>
        <mxCell id="id5w-fibCyRtsWTaa8x1-49" style="edgeStyle=orthogonalEdgeStyle;rounded=0;orthogonalLoop=1;jettySize=auto;html=1;exitX=0.5;exitY=0;exitDx=0;exitDy=0;fontFamily=Times New Roman;fontSize=11;startArrow=classicThin;startFill=1;endArrow=none;endFill=0;" parent="1" source="id5w-fibCyRtsWTaa8x1-51" edge="1">
          <mxGeometry relative="1" as="geometry">
            <mxPoint x="490" y="435" as="targetPoint" />
          </mxGeometry>
        </mxCell>
        <mxCell id="id5w-fibCyRtsWTaa8x1-50" style="edgeStyle=orthogonalEdgeStyle;rounded=0;orthogonalLoop=1;jettySize=auto;html=1;exitX=0.5;exitY=1;exitDx=0;exitDy=0;fontFamily=Times New Roman;fontSize=11;startArrow=classicThin;startFill=1;endArrow=none;endFill=0;" parent="1" source="id5w-fibCyRtsWTaa8x1-51" edge="1">
          <mxGeometry relative="1" as="geometry">
            <mxPoint x="489.85714285714266" y="505" as="targetPoint" />
          </mxGeometry>
        </mxCell>
        <mxCell id="id5w-fibCyRtsWTaa8x1-51" value="&lt;font style=&quot;font-size: 11px;&quot; face=&quot;Times New Roman&quot;&gt;Balance&lt;/font&gt;&lt;span style=&quot;color: rgba(0, 0, 0, 0); font-family: monospace; font-size: 0px; text-align: start;&quot;&gt;%3CmxGraphModel%3E%3Croot%3E%3CmxCell%20id%3D%220%22%2F%3E%3CmxCell%20id%3D%221%22%20parent%3D%220%22%2F%3E%3CmxCell%20id%3D%222%22%20value%3D%22%26lt%3Bfont%20style%3D%26quot%3Bfont-size%3A%2011px%3B%26quot%3B%20face%3D%26quot%3BTimes%20New%20Roman%26quot%3B%26gt%3BOrder%23%26lt%3B%2Ffont%26gt%3B%22%20style%3D%22rounded%3D0%3BwhiteSpace%3Dwrap%3Bhtml%3D1%3B%22%20vertex%3D%221%22%20parent%3D%221%22%3E%3CmxGeometry%20x%3D%2270%22%20y%3D%22210%22%20width%3D%2250%22%20height%3D%2220%22%20as%3D%22geometry%22%2F%3E%3C%2FmxCell%3E%3C%2Froot%3E%3C%2FmxGraphModel%3E&lt;/span&gt;" style="rounded=0;whiteSpace=wrap;html=1;" parent="1" vertex="1">
          <mxGeometry x="465" y="460" width="50" height="20" as="geometry" />
        </mxCell>
        <mxCell id="id5w-fibCyRtsWTaa8x1-52" style="edgeStyle=orthogonalEdgeStyle;rounded=0;orthogonalLoop=1;jettySize=auto;html=1;exitX=0.5;exitY=0;exitDx=0;exitDy=0;fontFamily=Times New Roman;fontSize=11;startArrow=classicThin;startFill=1;endArrow=none;endFill=0;" parent="1" source="id5w-fibCyRtsWTaa8x1-54" edge="1">
          <mxGeometry relative="1" as="geometry">
            <mxPoint x="550" y="435" as="targetPoint" />
          </mxGeometry>
        </mxCell>
        <mxCell id="id5w-fibCyRtsWTaa8x1-53" style="edgeStyle=orthogonalEdgeStyle;rounded=0;orthogonalLoop=1;jettySize=auto;html=1;exitX=0.5;exitY=1;exitDx=0;exitDy=0;fontFamily=Times New Roman;fontSize=11;startArrow=classicThin;startFill=1;endArrow=none;endFill=0;" parent="1" source="id5w-fibCyRtsWTaa8x1-54" edge="1">
          <mxGeometry relative="1" as="geometry">
            <mxPoint x="549.7096774193549" y="505" as="targetPoint" />
          </mxGeometry>
        </mxCell>
        <mxCell id="id5w-fibCyRtsWTaa8x1-54" value="&lt;font style=&quot;font-size: 11px;&quot; face=&quot;Times New Roman&quot;&gt;Credit_Limit&lt;/font&gt;" style="rounded=0;whiteSpace=wrap;html=1;" parent="1" vertex="1">
          <mxGeometry x="515" y="460" width="70" height="20" as="geometry" />
        </mxCell>
        <mxCell id="id5w-fibCyRtsWTaa8x1-55" style="edgeStyle=orthogonalEdgeStyle;rounded=0;orthogonalLoop=1;jettySize=auto;html=1;exitX=0.5;exitY=0;exitDx=0;exitDy=0;fontFamily=Times New Roman;fontSize=11;startArrow=none;startFill=0;endArrow=none;endFill=0;" parent="1" source="id5w-fibCyRtsWTaa8x1-57" edge="1">
          <mxGeometry relative="1" as="geometry">
            <mxPoint x="610" y="435" as="targetPoint" />
          </mxGeometry>
        </mxCell>
        <mxCell id="id5w-fibCyRtsWTaa8x1-56" style="edgeStyle=orthogonalEdgeStyle;rounded=0;orthogonalLoop=1;jettySize=auto;html=1;exitX=0.5;exitY=1;exitDx=0;exitDy=0;fontFamily=Times New Roman;fontSize=11;startArrow=classicThin;startFill=1;endArrow=none;endFill=0;" parent="1" source="id5w-fibCyRtsWTaa8x1-57" edge="1">
          <mxGeometry relative="1" as="geometry">
            <mxPoint x="609.7096774193549" y="505" as="targetPoint" />
          </mxGeometry>
        </mxCell>
        <mxCell id="id5w-fibCyRtsWTaa8x1-57" value="&lt;font style=&quot;font-size: 11px;&quot; face=&quot;Times New Roman&quot;&gt;RepID&lt;/font&gt;" style="rounded=0;whiteSpace=wrap;html=1;" parent="1" vertex="1">
          <mxGeometry x="585" y="460" width="50" height="20" as="geometry" />
        </mxCell>
        <mxCell id="id5w-fibCyRtsWTaa8x1-58" style="edgeStyle=orthogonalEdgeStyle;rounded=0;orthogonalLoop=1;jettySize=auto;html=1;exitX=0.5;exitY=0;exitDx=0;exitDy=0;fontFamily=Times New Roman;fontSize=11;startArrow=classicThin;startFill=1;endArrow=none;endFill=0;" parent="1" source="id5w-fibCyRtsWTaa8x1-60" edge="1">
          <mxGeometry relative="1" as="geometry">
            <mxPoint x="660.2857142857142" y="435" as="targetPoint" />
          </mxGeometry>
        </mxCell>
        <mxCell id="id5w-fibCyRtsWTaa8x1-59" style="edgeStyle=orthogonalEdgeStyle;rounded=0;orthogonalLoop=1;jettySize=auto;html=1;exitX=0.5;exitY=1;exitDx=0;exitDy=0;fontFamily=Times New Roman;fontSize=11;startArrow=classicThin;startFill=1;endArrow=none;endFill=0;" parent="1" source="id5w-fibCyRtsWTaa8x1-60" edge="1">
          <mxGeometry relative="1" as="geometry">
            <mxPoint x="660.0322580645161" y="505" as="targetPoint" />
          </mxGeometry>
        </mxCell>
        <mxCell id="id5w-fibCyRtsWTaa8x1-60" value="&lt;font style=&quot;font-size: 11px;&quot; face=&quot;Times New Roman&quot;&gt;FName&lt;/font&gt;" style="rounded=0;whiteSpace=wrap;html=1;" parent="1" vertex="1">
          <mxGeometry x="635" y="460" width="50" height="20" as="geometry" />
        </mxCell>
        <mxCell id="id5w-fibCyRtsWTaa8x1-61" style="edgeStyle=orthogonalEdgeStyle;rounded=0;orthogonalLoop=1;jettySize=auto;html=1;exitX=0.5;exitY=0;exitDx=0;exitDy=0;fontFamily=Times New Roman;fontSize=11;startArrow=classicThin;startFill=1;endArrow=none;endFill=0;" parent="1" source="id5w-fibCyRtsWTaa8x1-62" edge="1">
          <mxGeometry relative="1" as="geometry">
            <mxPoint x="710.4761904761904" y="435" as="targetPoint" />
          </mxGeometry>
        </mxCell>
        <mxCell id="id5w-fibCyRtsWTaa8x1-62" value="&lt;font style=&quot;font-size: 11px;&quot; face=&quot;Times New Roman&quot;&gt;LName&lt;/font&gt;" style="rounded=0;whiteSpace=wrap;html=1;" parent="1" vertex="1">
          <mxGeometry x="685" y="460" width="50" height="20" as="geometry" />
        </mxCell>
        <mxCell id="id5w-fibCyRtsWTaa8x1-63" style="edgeStyle=orthogonalEdgeStyle;rounded=0;orthogonalLoop=1;jettySize=auto;html=1;exitX=0.5;exitY=0;exitDx=0;exitDy=0;fontFamily=Times New Roman;fontSize=11;startArrow=none;startFill=0;endArrow=none;endFill=0;" parent="1" source="id5w-fibCyRtsWTaa8x1-65" edge="1">
          <mxGeometry relative="1" as="geometry">
            <mxPoint x="759.9767441860465" y="435" as="targetPoint" />
          </mxGeometry>
        </mxCell>
        <mxCell id="id5w-fibCyRtsWTaa8x1-65" value="&lt;font style=&quot;font-size: 11px;&quot; face=&quot;Times New Roman&quot;&gt;&lt;u&gt;Item#&lt;/u&gt;&lt;/font&gt;" style="rounded=0;whiteSpace=wrap;html=1;" parent="1" vertex="1">
          <mxGeometry x="735" y="460" width="50" height="20" as="geometry" />
        </mxCell>
        <mxCell id="id5w-fibCyRtsWTaa8x1-92" style="edgeStyle=orthogonalEdgeStyle;rounded=0;orthogonalLoop=1;jettySize=auto;html=1;exitX=0.5;exitY=0;exitDx=0;exitDy=0;startArrow=classicThin;startFill=1;endArrow=none;endFill=0;" parent="1" source="id5w-fibCyRtsWTaa8x1-75" edge="1">
          <mxGeometry relative="1" as="geometry">
            <mxPoint x="825.3333333333335" y="436" as="targetPoint" />
          </mxGeometry>
        </mxCell>
        <mxCell id="id5w-fibCyRtsWTaa8x1-75" value="&lt;font style=&quot;font-size: 11px;&quot; face=&quot;Times New Roman&quot;&gt;Num_Ordered&lt;/font&gt;" style="rounded=0;whiteSpace=wrap;html=1;" parent="1" vertex="1">
          <mxGeometry x="785" y="460" width="80" height="20" as="geometry" />
        </mxCell>
        <mxCell id="id5w-fibCyRtsWTaa8x1-76" value="&lt;font style=&quot;font-size: 11px;&quot; face=&quot;Times New Roman&quot;&gt;Quoted_Price&lt;/font&gt;" style="rounded=0;whiteSpace=wrap;html=1;" parent="1" vertex="1">
          <mxGeometry x="865" y="460" width="80" height="20" as="geometry" />
        </mxCell>
        <mxCell id="id5w-fibCyRtsWTaa8x1-77" style="edgeStyle=orthogonalEdgeStyle;rounded=0;orthogonalLoop=1;jettySize=auto;html=1;exitX=0.5;exitY=1;exitDx=0;exitDy=0;entryX=0.5;entryY=1;entryDx=0;entryDy=0;fontFamily=Times New Roman;fontSize=11;startArrow=classicThin;startFill=1;endArrow=classicThin;endFill=1;" parent="1" edge="1">
          <mxGeometry relative="1" as="geometry">
            <mxPoint x="300" y="525" as="sourcePoint" />
            <mxPoint x="710" y="525" as="targetPoint" />
            <Array as="points">
              <mxPoint x="300" y="550" />
              <mxPoint x="710" y="550" />
            </Array>
          </mxGeometry>
        </mxCell>
        <mxCell id="id5w-fibCyRtsWTaa8x1-78" style="edgeStyle=orthogonalEdgeStyle;rounded=0;orthogonalLoop=1;jettySize=auto;html=1;exitX=0.5;exitY=1;exitDx=0;exitDy=0;fontFamily=Times New Roman;fontSize=11;startArrow=classicThin;startFill=1;endArrow=none;endFill=0;" parent="1" edge="1">
          <mxGeometry relative="1" as="geometry">
            <mxPoint x="359.8888888888889" y="550" as="targetPoint" />
            <mxPoint x="360" y="525" as="sourcePoint" />
          </mxGeometry>
        </mxCell>
        <mxCell id="id5w-fibCyRtsWTaa8x1-79" style="edgeStyle=orthogonalEdgeStyle;rounded=0;orthogonalLoop=1;jettySize=auto;html=1;exitX=0.5;exitY=1;exitDx=0;exitDy=0;fontFamily=Times New Roman;fontSize=11;startArrow=none;startFill=0;endArrow=none;endFill=0;" parent="1" edge="1">
          <mxGeometry relative="1" as="geometry">
            <mxPoint x="430.1111111111111" y="550" as="targetPoint" />
            <mxPoint x="430" y="525" as="sourcePoint" />
          </mxGeometry>
        </mxCell>
        <mxCell id="id5w-fibCyRtsWTaa8x1-80" style="edgeStyle=orthogonalEdgeStyle;rounded=0;orthogonalLoop=1;jettySize=auto;html=1;exitX=0.5;exitY=1;exitDx=0;exitDy=0;fontFamily=Times New Roman;fontSize=11;startArrow=classicThin;startFill=1;endArrow=none;endFill=0;" parent="1" edge="1">
          <mxGeometry relative="1" as="geometry">
            <mxPoint x="490.1111111111111" y="550" as="targetPoint" />
            <mxPoint x="490" y="525" as="sourcePoint" />
          </mxGeometry>
        </mxCell>
        <mxCell id="id5w-fibCyRtsWTaa8x1-81" style="edgeStyle=orthogonalEdgeStyle;rounded=0;orthogonalLoop=1;jettySize=auto;html=1;exitX=0.5;exitY=1;exitDx=0;exitDy=0;fontFamily=Times New Roman;fontSize=11;startArrow=classicThin;startFill=1;endArrow=none;endFill=0;" parent="1" edge="1">
          <mxGeometry relative="1" as="geometry">
            <mxPoint x="549.7096774193549" y="550" as="targetPoint" />
            <mxPoint x="550" y="525" as="sourcePoint" />
          </mxGeometry>
        </mxCell>
        <mxCell id="id5w-fibCyRtsWTaa8x1-82" style="edgeStyle=orthogonalEdgeStyle;rounded=0;orthogonalLoop=1;jettySize=auto;html=1;exitX=0.5;exitY=1;exitDx=0;exitDy=0;fontFamily=Times New Roman;fontSize=11;startArrow=classicThin;startFill=1;endArrow=none;endFill=0;" parent="1" edge="1">
          <mxGeometry relative="1" as="geometry">
            <mxPoint x="609.7096774193549" y="550" as="targetPoint" />
            <mxPoint x="610" y="525" as="sourcePoint" />
          </mxGeometry>
        </mxCell>
        <mxCell id="id5w-fibCyRtsWTaa8x1-83" style="edgeStyle=orthogonalEdgeStyle;rounded=0;orthogonalLoop=1;jettySize=auto;html=1;exitX=0.5;exitY=1;exitDx=0;exitDy=0;fontFamily=Times New Roman;fontSize=11;startArrow=classicThin;startFill=1;endArrow=none;endFill=0;" parent="1" edge="1">
          <mxGeometry relative="1" as="geometry">
            <mxPoint x="660.0322580645161" y="550" as="targetPoint" />
            <mxPoint x="660" y="525" as="sourcePoint" />
          </mxGeometry>
        </mxCell>
        <mxCell id="id5w-fibCyRtsWTaa8x1-84" style="edgeStyle=orthogonalEdgeStyle;rounded=0;orthogonalLoop=1;jettySize=auto;html=1;exitX=0.5;exitY=1;exitDx=0;exitDy=0;entryX=0.5;entryY=1;entryDx=0;entryDy=0;fontFamily=Times New Roman;fontSize=11;startArrow=none;startFill=0;endArrow=classicThin;endFill=1;" parent="1" edge="1">
          <mxGeometry relative="1" as="geometry">
            <mxPoint x="610" y="558.95" as="sourcePoint" />
            <mxPoint x="710" y="558.95" as="targetPoint" />
            <Array as="points">
              <mxPoint x="610" y="584.95" />
              <mxPoint x="710" y="584.95" />
            </Array>
          </mxGeometry>
        </mxCell>
        <mxCell id="id5w-fibCyRtsWTaa8x1-85" style="edgeStyle=orthogonalEdgeStyle;rounded=0;orthogonalLoop=1;jettySize=auto;html=1;exitX=0.5;exitY=1;exitDx=0;exitDy=0;fontFamily=Times New Roman;fontSize=11;startArrow=classicThin;startFill=1;endArrow=none;endFill=0;" parent="1" edge="1">
          <mxGeometry relative="1" as="geometry">
            <mxPoint x="659.7777777777778" y="584.95" as="targetPoint" />
            <mxPoint x="660" y="558.95" as="sourcePoint" />
          </mxGeometry>
        </mxCell>
        <mxCell id="id5w-fibCyRtsWTaa8x1-86" value="Transitive Dependency" style="text;html=1;resizable=0;autosize=1;align=center;verticalAlign=middle;points=[];fillColor=none;strokeColor=none;rounded=0;fontFamily=Times New Roman;fontSize=11;" parent="1" vertex="1">
          <mxGeometry x="595" y="576" width="130" height="30" as="geometry" />
        </mxCell>
        <mxCell id="id5w-fibCyRtsWTaa8x1-89" value="Transitive Dependency" style="text;html=1;resizable=0;autosize=1;align=center;verticalAlign=middle;points=[];fillColor=none;strokeColor=none;rounded=0;fontFamily=Times New Roman;fontSize=11;" parent="1" vertex="1">
          <mxGeometry x="290" y="501" width="130" height="30" as="geometry" />
        </mxCell>
        <mxCell id="id5w-fibCyRtsWTaa8x1-90" value="Transitive Dependency" style="text;html=1;resizable=0;autosize=1;align=center;verticalAlign=middle;points=[];fillColor=none;strokeColor=none;rounded=0;fontFamily=Times New Roman;fontSize=11;" parent="1" vertex="1">
          <mxGeometry x="290" y="544" width="130" height="30" as="geometry" />
        </mxCell>
        <mxCell id="id5w-fibCyRtsWTaa8x1-104" style="edgeStyle=orthogonalEdgeStyle;rounded=0;orthogonalLoop=1;jettySize=auto;html=1;exitX=0.5;exitY=0;exitDx=0;exitDy=0;startArrow=classicThin;startFill=1;endArrow=none;endFill=0;" parent="1" source="id5w-fibCyRtsWTaa8x1-93" edge="1">
          <mxGeometry relative="1" as="geometry">
            <mxPoint x="706.1428571428571" y="1171.45" as="targetPoint" />
          </mxGeometry>
        </mxCell>
        <mxCell id="id5w-fibCyRtsWTaa8x1-93" value="&lt;font style=&quot;font-size: 11px;&quot; face=&quot;Times New Roman&quot;&gt;CustID&lt;/font&gt;" style="rounded=0;whiteSpace=wrap;html=1;" parent="1" vertex="1">
          <mxGeometry x="681" y="1195" width="50" height="20" as="geometry" />
        </mxCell>
        <mxCell id="id5w-fibCyRtsWTaa8x1-106" value="Candidate Key" style="text;html=1;resizable=0;autosize=1;align=center;verticalAlign=middle;points=[];fillColor=none;strokeColor=none;rounded=0;fontFamily=Times New Roman;fontSize=11;" parent="1" vertex="1">
          <mxGeometry x="251" y="1318.45" width="100" height="30" as="geometry" />
        </mxCell>
        <mxCell id="id5w-fibCyRtsWTaa8x1-115" style="edgeStyle=orthogonalEdgeStyle;rounded=0;orthogonalLoop=1;jettySize=auto;html=1;exitX=0.5;exitY=0;exitDx=0;exitDy=0;entryX=0.5;entryY=0;entryDx=0;entryDy=0;startArrow=none;startFill=0;endArrow=classicThin;endFill=1;" parent="1" source="id5w-fibCyRtsWTaa8x1-114" target="3e-uo4Sejg_3FfOKzJGx-198" edge="1">
          <mxGeometry relative="1" as="geometry" />
        </mxCell>
        <mxCell id="id5w-fibCyRtsWTaa8x1-114" value="&lt;font style=&quot;font-size: 11px;&quot; face=&quot;Times New Roman&quot;&gt;&lt;u&gt;CustID&lt;/u&gt;&lt;/font&gt;" style="rounded=0;whiteSpace=wrap;html=1;" parent="1" vertex="1">
          <mxGeometry x="586" y="1278.5" width="50" height="20" as="geometry" />
        </mxCell>
        <mxCell id="id5w-fibCyRtsWTaa8x1-116" value="PK" style="text;html=1;resizable=0;autosize=1;align=center;verticalAlign=middle;points=[];fillColor=none;strokeColor=none;rounded=0;fontFamily=Times New Roman;fontSize=11;" parent="1" vertex="1">
          <mxGeometry x="661" y="1248.5" width="40" height="30" as="geometry" />
        </mxCell>
        <mxCell id="id5w-fibCyRtsWTaa8x1-117" value="&lt;span style=&quot;font-size: 14px;&quot;&gt;&lt;b&gt;CUST_SUPPORT&lt;/b&gt;&lt;/span&gt;" style="text;html=1;resizable=0;autosize=1;align=center;verticalAlign=middle;points=[];fillColor=none;strokeColor=none;rounded=0;fontFamily=Times New Roman;fontSize=11;" parent="1" vertex="1">
          <mxGeometry x="551" y="1231.45" width="130" height="30" as="geometry" />
        </mxCell>
        <mxCell id="id5w-fibCyRtsWTaa8x1-118" value="&lt;b style=&quot;&quot;&gt;&lt;font style=&quot;font-size: 12px;&quot;&gt;CUST_SUPPORT&lt;/font&gt;&lt;/b&gt;" style="text;html=1;resizable=0;autosize=1;align=center;verticalAlign=middle;points=[];fillColor=none;strokeColor=none;rounded=0;fontFamily=Times New Roman;fontSize=11;" parent="1" vertex="1">
          <mxGeometry x="288" y="2090" width="120" height="30" as="geometry" />
        </mxCell>
        <mxCell id="id5w-fibCyRtsWTaa8x1-126" value="&lt;font face=&quot;Times New Roman&quot;&gt;ORDER&lt;/font&gt;" style="whiteSpace=wrap;html=1;align=center;fontSize=14;" parent="1" vertex="1">
          <mxGeometry x="1055" y="2259.5" width="70" height="26" as="geometry" />
        </mxCell>
        <mxCell id="id5w-fibCyRtsWTaa8x1-131" style="edgeStyle=orthogonalEdgeStyle;rounded=0;orthogonalLoop=1;jettySize=auto;html=1;entryX=0;entryY=0.5;entryDx=0;entryDy=0;fontSize=12;startArrow=none;startFill=0;endArrow=none;endFill=0;" parent="1" source="id5w-fibCyRtsWTaa8x1-128" target="id5w-fibCyRtsWTaa8x1-126" edge="1">
          <mxGeometry relative="1" as="geometry" />
        </mxCell>
        <mxCell id="id5w-fibCyRtsWTaa8x1-128" value="places" style="shape=rhombus;perimeter=rhombusPerimeter;whiteSpace=wrap;html=1;align=center;fontFamily=Times New Roman;fontSize=14;" parent="1" vertex="1">
          <mxGeometry x="927.3700000000001" y="2258" width="65.25" height="29" as="geometry" />
        </mxCell>
        <mxCell id="zzDn1OUkkv3zQE1kXq0X-1" value="&lt;font style=&quot;font-size: 14px;&quot; face=&quot;Times New Roman&quot;&gt;(1,N)&lt;/font&gt;" style="text;html=1;resizable=0;autosize=1;align=center;verticalAlign=middle;points=[];fillColor=none;strokeColor=none;rounded=0;" vertex="1" parent="1">
          <mxGeometry x="735" y="2010" width="50" height="30" as="geometry" />
        </mxCell>
        <mxCell id="zzDn1OUkkv3zQE1kXq0X-2" value="&lt;font style=&quot;font-size: 14px;&quot; face=&quot;Times New Roman&quot;&gt;(1,N)&lt;/font&gt;" style="text;html=1;resizable=0;autosize=1;align=center;verticalAlign=middle;points=[];fillColor=none;strokeColor=none;rounded=0;" vertex="1" parent="1">
          <mxGeometry x="735" y="1944" width="50" height="30" as="geometry" />
        </mxCell>
        <mxCell id="zzDn1OUkkv3zQE1kXq0X-3" value="&lt;font style=&quot;font-size: 14px;&quot; face=&quot;Times New Roman&quot;&gt;(1,1)&lt;/font&gt;" style="text;html=1;resizable=0;autosize=1;align=center;verticalAlign=middle;points=[];fillColor=none;strokeColor=none;rounded=0;" vertex="1" parent="1">
          <mxGeometry x="735" y="2090" width="50" height="30" as="geometry" />
        </mxCell>
        <mxCell id="zzDn1OUkkv3zQE1kXq0X-4" value="&lt;font style=&quot;font-size: 14px;&quot; face=&quot;Times New Roman&quot;&gt;(1,1)&lt;/font&gt;" style="text;html=1;resizable=0;autosize=1;align=center;verticalAlign=middle;points=[];fillColor=none;strokeColor=none;rounded=0;" vertex="1" parent="1">
          <mxGeometry x="735" y="1873" width="50" height="30" as="geometry" />
        </mxCell>
        <mxCell id="zzDn1OUkkv3zQE1kXq0X-5" value="&lt;font style=&quot;font-size: 14px;&quot; face=&quot;Times New Roman&quot;&gt;(1,N)&lt;/font&gt;" style="text;html=1;resizable=0;autosize=1;align=center;verticalAlign=middle;points=[];fillColor=none;strokeColor=none;rounded=0;" vertex="1" parent="1">
          <mxGeometry x="750" y="2151" width="50" height="30" as="geometry" />
        </mxCell>
        <mxCell id="zzDn1OUkkv3zQE1kXq0X-8" value="&lt;font style=&quot;font-size: 14px;&quot; face=&quot;Times New Roman&quot;&gt;(1,1)&lt;/font&gt;" style="text;html=1;resizable=0;autosize=1;align=center;verticalAlign=middle;points=[];fillColor=none;strokeColor=none;rounded=0;" vertex="1" parent="1">
          <mxGeometry x="746" y="2215" width="50" height="30" as="geometry" />
        </mxCell>
        <mxCell id="zzDn1OUkkv3zQE1kXq0X-9" value="&lt;font style=&quot;font-size: 14px;&quot; face=&quot;Times New Roman&quot;&gt;(1,1)&lt;/font&gt;" style="text;html=1;resizable=0;autosize=1;align=center;verticalAlign=middle;points=[];fillColor=none;strokeColor=none;rounded=0;" vertex="1" parent="1">
          <mxGeometry x="570" y="2231" width="50" height="30" as="geometry" />
        </mxCell>
      </root>
    </mxGraphModel>
  </diagram>
</mxfile>
